<svg xmlns="http://www.w3.org/2000/svg" width="6400" height="4096"><defs><style type="text/css">@import url('https://fonts.googleapis.com/css?family=Hammersmith+One');</style></defs><g><rect width="100%" height="100%" fill="white"></rect><g><g class="river"><path d="M1351.5777111025802,2990.5259611398133C2042.7487179487184,2210.789743589744,2042.7487179487184,2210.789743589744,2042.7487179487184,2174.0307692307692L2042.7487179487184,1512.3692307692306C2042.7487179487184,1475.6102564102562,2042.7487179487184,1475.6102564102562,2076.944566544567,1438.851282051282L2145.3362637362643,1365.3333333333335C2179.532112332113,1328.5743589743588,2179.532112332113,1328.5743589743588,2213.7279609279612,1328.5743589743588L3547.3660561660568,1328.5743589743588C3581.5619047619057,1328.5743589743588,3581.5619047619057,1328.5743589743588,3615.757753357754,1291.8153846153846L4443.712154587286,401.80224398839164" stroke="#C4E8F8" fill="none" stroke-width="73.86303296703271"></path></g><g class="lines"><path d="M2306.0567521367525,2100.5128205128203L2624.0781440781443,2100.5128205128203L2863.4490842490845,2100.5128205128203Q2897.6449328449335,2100.5128205128203,2897.6449328449335,2063.753846153846L2897.6449328449335,1879.9589743589745L2897.6449328449335,1732.9230769230771L2897.6449328449335,1622.646153846154Q2897.6449328449335,1585.8871794871795,2863.4490842490845,1585.8871794871795L2795.0573870573876,1585.8871794871795L2760.861538461539,1585.8871794871795L2624.0781440781443,1585.8871794871795L2316.315506715507,1585.8871794871795L2247.9238095238097,1585.8871794871795L2179.532112332113,1585.8871794871795Q2145.3362637362643,1585.8871794871795,2145.3362637362643,1622.646153846154L2145.3362637362643,1879.9589743589745L2145.3362637362643,2026.9948717948719L2145.3362637362643,2063.753846153846Q2145.3362637362643,2100.5128205128203,2179.532112332113,2100.5128205128203L2326.5742612942613,2100.5128205128203" id="Town" stroke="#ffd300" fill="none" stroke-width="41.03501831501817" class="line"></path><path d="M2189.790866910867,696.3199999999997L1871.7694749694751,696.3199999999997C1837.5736263736267,696.3199999999997,1837.5736263736267,696.3199999999997,1803.377777777778,733.0789743589739L1734.9860805860808,806.5969230769228L1666.5943833943836,880.1148717948718L1598.2026862026864,953.6328205128207C1564.006837606838,990.3917948717949,1564.006837606838,990.3917948717949,1564.006837606838,1027.1507692307691L1564.006837606838,1100.6687179487176L1564.006837606838,1137.4276923076923C1564.006837606838,1174.1866666666667,1564.006837606838,1174.1866666666667,1598.2026862026864,1210.9456410256412L1666.5943833943836,1284.4635897435894L1734.9860805860808,1357.9815384615383L1803.377777777778,1431.499487179487L1871.7694749694751,1505.017435897436C1905.9653235653238,1541.7764102564101,1905.9653235653238,1541.7764102564101,1940.1611721611725,1541.7764102564101L2247.9238095238097,1541.7764102564101L2316.315506715507,1541.7764102564101L2634.336898656899,1541.7764102564101" id="Castle" stroke="#b36305" fill="none" stroke-width="41.03501831501817" class="line"></path><path d="M1940.1611721611725,2111.540512820513L1940.1611721611725,1585.8871794871795L1940.1611721611725,1291.8153846153846C1940.1611721611725,1255.0564102564101,1940.1611721611725,1255.0564102564101,1974.357020757021,1218.2974358974357L2042.7487179487184,1144.7794871794872C2076.944566544567,1108.020512820513,2076.944566544567,1108.020512820513,2111.1404151404154,1108.020512820513L2179.532112332113,1108.020512820513L2282.1196581196587,1108.020512820513L2418.903052503053,1108.020512820513L2624.0781440781443,1108.020512820513L3137.0158730158737,1108.020512820513L3284.058021978022,1108.020512820513" id="Riverbank" stroke="#0098d4" fill="none" stroke-width="41.03501831501817" class="line"></path><path d="M2135.0775091575097,1879.9589743589745L2384.7072039072045,1879.9589743589745L2487.29474969475,1879.9589743589745L2897.6449328449335,1879.9589743589745L3171.211721611722,1879.9589743589745L3307.9951159951165,1879.9589743589745L3444.778510378511,1879.9589743589745L3547.3660561660568,1879.9589743589745L3684.149450549451,1879.9589743589745L3786.736996336997,1879.9589743589745L3957.71623931624,1879.9589743589745L4128.695482295483,1879.9589743589745L4197.08717948718,1879.9589743589745L4231.283028083029,1879.9589743589745C4265.478876678878,1879.9589743589745,4265.478876678878,1879.9589743589745,4299.674725274726,1916.7179487179487L4368.066422466423,1990.2358974358974L4436.45811965812,2063.753846153846L4512.103851778983,2145.0695508834033" id="Backstreet" stroke="#e32017" fill="none" stroke-width="41.03501831501817" class="line"></path><path d="M955.3207326007326,2817.3128205128205L955.3207326007326,2732.7671794871794L955.3207326007326,2659.249230769231L955.3207326007326,2585.731282051282L955.3207326007326,2401.9364102564105C955.3207326007326,2365.177435897436,955.3207326007326,2365.177435897436,989.5165811965812,2328.4184615384615L1057.9082783882784,2254.9005128205126L1126.2999755799756,2181.382564102564C1160.4958241758243,2144.62358974359,1160.4958241758243,2144.62358974359,1194.691672771673,2144.62358974359L1776.021098901099,2144.62358974359L1981.1961904761906,2144.62358974359L2357.3505250305257,2144.62358974359L2870.2882539682546,2144.62358974359L2904.484102564103,2144.62358974359C2938.679951159952,2144.62358974359,2938.679951159952,2144.62358974359,2972.8757997558005,2107.8646153846157L3314.834285714286,1740.2748717948718L3383.2259829059835,1666.7569230769232L3451.617680097681,1593.2389743589747C3485.8135286935294,1556.48,3485.8135286935294,1556.48,3520.009377289378,1556.48L3656.7927716727722,1556.48L3725.1844688644696,1556.48L3930.359560439561,1556.48L3998.7512576312583,1556.48C4032.947106227107,1556.48,4032.947106227107,1556.48,4067.1429548229553,1519.7210256410258L4887.843321123322,600.7466666666664L4963.489053244185,519.4309619371097" id="Grantchester" stroke="#00782a" fill="none" stroke-width="41.03501831501817" class="line"></path><path d="M3171.211721611722,1868.931282051282L3171.211721611722,2026.9948717948719C3171.211721611722,2063.753846153846,3171.211721611722,2063.753846153846,3205.4075702075706,2100.5128205128203L3273.799267399268,2174.0307692307692L3342.190964590965,2247.548717948718L3410.5826617826624,2321.0666666666666L3478.97435897436,2394.5846153846155L3547.3660561660568,2468.1025641025644L3615.757753357754,2541.620512820513L3684.149450549451,2615.1384615384613L3752.5411477411485,2688.6564102564103L3828.186879862011,2769.972114985967" id="MillRoad" stroke="#a0a5a9" fill="none" stroke-width="41.03501831501817" class="line"></path><path d="M2306.0567521367525,2188.7343589743587L2760.861538461539,2188.7343589743587C2795.0573870573876,2188.7343589743587,2795.0573870573876,2188.7343589743587,2829.253235653236,2225.4933333333333L2897.6449328449335,2299.0112820512823L2966.0366300366304,2372.5292307692307L3102.820024420025,2519.5651282051285L3171.211721611722,2593.083076923077L3239.6034188034196,2666.6010256410254L3444.778510378511,2887.1548717948717L3513.1702075702083,2960.6728205128206C3547.3660561660568,2997.431794871795,3547.3660561660568,2997.431794871795,3581.561904761905,2997.431794871795L3660.212356532357,2997.431794871795" id="HillsRoad" stroke="#9b0056" fill="none" stroke-width="41.03501831501817" class="line"></path><path d="M1625.1444998693692,3284.5977560116085L1734.9860805860808,3166.523076923077L1803.377777777778,3093.0051282051286L2487.29474969475,2357.825641025641L2589.882295482296,2247.548717948718C2624.0781440781443,2210.789743589744,2624.0781440781443,2210.789743589744,2624.0781440781443,2174.0307692307692L2624.0781440781443,2100.5128205128203L2624.0781440781443,1585.8871794871795L2624.0781440781443,1475.6102564102564L2624.0781440781443,1402.0923076923077L2624.0781440781443,1108.020512820513L2624.0781440781443,1034.502564102564C2624.0781440781443,997.7435897435896,2624.0781440781443,997.7435897435896,2658.2739926739932,960.9846153846152L2726.66568986569,887.4666666666667C2760.8615384615387,850.7076923076925,2760.8615384615387,850.7076923076925,2795.0573870573876,850.7076923076925L2863.4490842490845,850.7076923076925L3068.6241758241763,850.7076923076925L3137.0158730158737,850.7076923076925Q3171.211721611722,850.7076923076925,3171.211721611722,813.9487179487182L3171.211721611722,740.4307692307693L3171.211721611722,398.57230769230773" id="Northern" stroke="#000000" fill="none" stroke-width="41.03501831501817" class="line"></path></g><g class="interchanges"><g id="BrewHouse"><path d="M2.5126701916220008e-15,-41.03501831501817A41.03501831501817,41.03501831501817,0,1,1,-2.5126701916220008e-15,41.03501831501817A41.03501831501817,41.03501831501817,0,1,1,2.5126701916220008e-15,-41.03501831501817Z" transform="translate(2624.0781440781443,1563.831794871795)" stroke-width="20.517509157509085" fill="#ffffff" stroke="#000000" class="interchange" style="cursor: pointer;"></path></g><g id="ClarendonArms"><path d="M2.5126701916220008e-15,-41.03501831501817A41.03501831501817,41.03501831501817,0,1,1,-2.5126701916220008e-15,41.03501831501817A41.03501831501817,41.03501831501817,0,1,1,2.5126701916220008e-15,-41.03501831501817Z" transform="translate(2897.6449328449335,1879.9589743589745)" stroke-width="20.517509157509085" fill="#ffffff" stroke="#000000" class="interchange" style="cursor: pointer;"></path></g><g id="Eagle"><path d="M2.5126701916220008e-15,-41.03501831501817A41.03501831501817,41.03501831501817,0,1,1,-2.5126701916220008e-15,41.03501831501817A41.03501831501817,41.03501831501817,0,1,1,2.5126701916220008e-15,-41.03501831501817Z" transform="translate(2145.3362637362643,1879.9589743589745)" stroke-width="20.517509157509085" fill="#ffffff" stroke="#000000" class="interchange" style="cursor: pointer;"></path></g><g id="ElmTree"><path d="M2.5126701916220008e-15,-41.03501831501817A41.03501831501817,41.03501831501817,0,1,1,-2.5126701916220008e-15,41.03501831501817A41.03501831501817,41.03501831501817,0,1,1,2.5126701916220008e-15,-41.03501831501817Z" transform="translate(3171.211721611722,1879.9589743589745)" stroke-width="20.517509157509085" fill="#ffffff" stroke="#000000" class="interchange" style="cursor: pointer;"></path></g><g id="Granta"><path d="M2.5126701916220008e-15,-41.03501831501817A41.03501831501817,41.03501831501817,0,1,1,-2.5126701916220008e-15,41.03501831501817A41.03501831501817,41.03501831501817,0,1,1,2.5126701916220008e-15,-41.03501831501817Z" transform="translate(1940.1611721611725,2144.62358974359)" stroke-width="20.517509157509085" fill="#ffffff" stroke="#000000" class="interchange" style="cursor: pointer;"></path></g><g id="OldSpring"><path d="M2.5126701916220008e-15,-41.03501831501817A41.03501831501817,41.03501831501817,0,1,1,-2.5126701916220008e-15,41.03501831501817A41.03501831501817,41.03501831501817,0,1,1,2.5126701916220008e-15,-41.03501831501817Z" transform="translate(2624.0781440781443,1108.020512820513)" stroke-width="20.517509157509085" fill="#ffffff" stroke="#000000" class="interchange" style="cursor: pointer;"></path></g><g id="Pickerel"><path d="M2.5126701916220008e-15,-41.03501831501817A41.03501831501817,41.03501831501817,0,1,1,-2.5126701916220008e-15,41.03501831501817A41.03501831501817,41.03501831501817,0,1,1,2.5126701916220008e-15,-41.03501831501817Z" transform="translate(1940.1611721611725,1541.7764102564101)" stroke-width="20.517509157509085" fill="#ffffff" stroke="#000000" class="interchange" style="cursor: pointer;"></path></g><g id="Regal"><path d="M2.5126701916220008e-15,-41.03501831501817A41.03501831501817,41.03501831501817,0,1,1,-2.5126701916220008e-15,41.03501831501817A41.03501831501817,41.03501831501817,0,1,1,2.5126701916220008e-15,-41.03501831501817Z" transform="translate(2624.0781440781443,2100.5128205128203)" stroke-width="20.517509157509085" fill="#ffffff" stroke="#000000" class="interchange" style="cursor: pointer;"></path></g></g><g class="stations"><g id="AlexandraArms"><path d="M4128.695482295483,1901.4764227642277L4128.695482295483,1924.0697435897437" stroke="#e32017" stroke-width="20.517509157509085" fill="none" class="Backstreet station" id="AlexandraArms"></path></g><g id="Alma"><path d="M2501.4489641906835,2373.0407747068275L2516.3108894114134,2389.016665072073" stroke="#000000" stroke-width="20.517509157509085" fill="none" class="Northern station" id="Alma"></path></g><g id="Anchor"><path d="M2165.353345841151,2026.9948717948719L2186.3712820512824,2026.9948717948719" stroke="#ffd300" stroke-width="20.517509157509085" fill="none" class="Town station" id="Anchor"></path></g><g id="AncientShepherds"><path d="M4833.605838427558,689.479749065802L4848.467763648288,705.4556394310471" stroke="#00782a" stroke-width="20.517509157509085" fill="none" class="Grantchester station" id="AncientShepherds"></path></g><g id="Architect"><path d="M1652.44016889845,1299.678723424776L1637.57824367772,1315.6546137900216" stroke="#b36305" stroke-width="20.517509157509085" fill="none" class="Castle station" id="Architect"></path></g><g id="BaronOfBeef"><path d="M2247.9238095238097,1607.4046278924327L2247.9238095238097,1629.997948717949" stroke="#ffd300" stroke-width="20.517509157509085" fill="none" class="Town station" id="BaronOfBeef"></path></g><g id="BaronOfBeef"><path d="M2247.9238095238097,1563.2938586616635L2247.9238095238097,1585.8871794871795" stroke="#b36305" stroke-width="20.517509157509085" fill="none" class="Castle station" id="BaronOfBeef"></path></g><g id="BathHouse"><path d="M2384.7072039072045,1901.4764227642277L2384.7072039072045,1924.0697435897437" stroke="#e32017" stroke-width="20.517509157509085" fill="none" class="Backstreet station" id="BathHouse"></path></g><g id="BlueBallInn"><path d="M935.3036504958457,2585.731282051282L914.2857142857143,2585.731282051282" stroke="#00782a" stroke-width="20.517509157509085" fill="none" class="Grantchester station" id="BlueBallInn"></path></g><g id="BlueMoon"><path d="M3957.71623931624,1858.441525953721L3957.71623931624,1835.848205128205" stroke="#e32017" stroke-width="20.517509157509085" fill="none" class="Backstreet station" id="BlueMoon"></path></g><g id="Boathouse"><path d="M2179.532112332113,1129.5379612257661L2179.532112332113,1152.1312820512821" stroke="#0098d4" stroke-width="20.517509157509085" fill="none" class="Riverbank station" id="Boathouse"></path></g><g id="Brook"><path d="M3806.7786304369124,2777.3894926555454L3791.916705216182,2793.365383020791" stroke="#a0a5a9" stroke-width="20.517509157509085" fill="none" class="MillRoad station" id="Brook"></path></g><g id="BurleighArms"><path d="M3369.0717684100496,1651.5417893957367L3354.20984318932,1635.5658990304914" stroke="#00782a" stroke-width="20.517509157509085" fill="none" class="Grantchester station" id="BurleighArms"></path></g><g id="CambridgeBlue"><path d="M4450.612334154054,2048.53871247266L4465.474259374784,2032.5628221074146" stroke="#e32017" stroke-width="20.517509157509085" fill="none" class="Backstreet station" id="CambridgeBlue"></path></g><g id="CarltonArms"><path d="M2179.532112332113,674.802551594747L2179.532112332113,652.2092307692305" stroke="#b36305" stroke-width="20.517509157509085" fill="none" class="Castle station" id="CarltonArms"></path></g><g id="CarpentersArms"><path d="M1720.8318660901473,791.3817893957366L1705.9699408694173,775.4058990304911" stroke="#b36305" stroke-width="20.517509157509085" fill="none" class="Castle station" id="CarpentersArms"></path></g><g id="CastleInn"><path d="M1749.1402950820143,1342.7664047803523L1764.0022203027443,1326.7905144151066" stroke="#b36305" stroke-width="20.517509157509085" fill="none" class="Castle station" id="CastleInn"></path></g><g id="ChampionOfTheThames"><path d="M2760.861538461539,1607.4046278924327L2760.861538461539,1629.997948717949" stroke="#ffd300" stroke-width="20.517509157509085" fill="none" class="Town station" id="ChampionOfTheThames"></path></g><g id="CornerHouse"><path d="M3656.7927716727722,1577.997448405253L3656.7927716727722,1600.5907692307692" stroke="#00782a" stroke-width="20.517509157509085" fill="none" class="Grantchester station" id="CornerHouse"></path></g><g id="Cricketers"><path d="M3307.9951159951165,1901.4764227642277L3307.9951159951165,1924.0697435897437" stroke="#e32017" stroke-width="20.517509157509085" fill="none" class="Backstreet station" id="Cricketers"></path></g><g id="DevonshireArms"><path d="M3533.2118416701232,2483.3176977837506L3518.3499164493933,2499.2935881489957" stroke="#a0a5a9" stroke-width="20.517509157509085" fill="none" class="MillRoad station" id="DevonshireArms"></path></g><g id="Dobblers"><path d="M3786.736996336997,1901.4764227642277L3786.736996336997,1924.0697435897437" stroke="#e32017" stroke-width="20.517509157509085" fill="none" class="Backstreet station" id="Dobblers"></path></g><g id="DukeOfCambridge"><path d="M3684.149450549451,1858.441525953721L3684.149450549451,1835.848205128205" stroke="#e32017" stroke-width="20.517509157509085" fill="none" class="Backstreet station" id="DukeOfCambridge"></path></g><g id="EarlOfBeaconsfield"><path d="M3629.911967853687,2526.4053791393267L3644.7738930744176,2510.429488774081" stroke="#a0a5a9" stroke-width="20.517509157509085" fill="none" class="MillRoad station" id="EarlOfBeaconsfield"></path></g><g id="EarlOfDerby"><path d="M3157.0575071157887,2608.298210604263L3142.1955818950582,2624.2741009695087" stroke="#9b0056" stroke-width="20.517509157509085" fill="none" class="HillsRoad station" id="EarlOfDerby"></path></g><g id="Empress"><path d="M3698.3036650453846,2599.9233278572756L3713.1655902661146,2583.94743749203" stroke="#a0a5a9" stroke-width="20.517509157509085" fill="none" class="MillRoad station" id="Empress"></path></g><g id="FlyingPig"><path d="M3116.974238915958,2504.349994523942L3131.8361641366887,2488.3741041586964" stroke="#9b0056" stroke-width="20.517509157509085" fill="none" class="HillsRoad station" id="FlyingPig"></path></g><g id="FortStGeorge"><path d="M2644.0952261830316,1402.0923076923077L2665.113162393163,1402.0923076923077" stroke="#000000" stroke-width="20.517509157509085" fill="none" class="Northern station" id="FortStGeorge"></path></g><g id="FreePress"><path d="M3444.778510378511,1858.441525953721L3444.778510378511,1835.848205128205" stroke="#e32017" stroke-width="20.517509157509085" fill="none" class="Backstreet station" id="FreePress"></path></g><g id="Geldart"><path d="M4197.08717948718,1858.441525953721L4197.08717948718,1835.848205128205" stroke="#e32017" stroke-width="20.517509157509085" fill="none" class="Backstreet station" id="Geldart"></path></g><g id="GoldenHind"><path d="M3068.6241758241763,872.2251407129456L3068.6241758241763,894.8184615384616" stroke="#000000" stroke-width="20.517509157509085" fill="none" class="Northern station" id="GoldenHind"></path></g><g id="GrainStore"><path d="M2911.799147340867,2283.796148370096L2926.661072561597,2267.8202580048505" stroke="#9b0056" stroke-width="20.517509157509085" fill="none" class="HillsRoad station" id="GrainStore"></path></g><g id="Grapes"><path d="M1652.44016889845,864.8997381136855L1637.57824367772,848.92384774844" stroke="#b36305" stroke-width="20.517509157509085" fill="none" class="Castle station" id="Grapes"></path></g><g id="GreenDragon"><path d="M3273.799267399268,1129.5379612257661L3273.799267399268,1152.1312820512821" stroke="#0098d4" stroke-width="20.517509157509085" fill="none" class="Riverbank station" id="GreenDragon"></path></g><g id="GreenManGrantchester"><path d="M935.3036504958457,2806.2851282051283L914.2857142857143,2806.2851282051283" stroke="#00782a" stroke-width="20.517509157509085" fill="none" class="Grantchester station" id="GreenManGrantchester"></path></g><g id="GreenManTrumpington"><path d="M1817.5319922737115,3108.220261886315L1832.3939174944417,3124.1961522515603" stroke="#000000" stroke-width="20.517509157509085" fill="none" class="Northern station" id="GreenManTrumpington"></path></g><g id="Haymakers"><path d="M3137.0158730158737,1086.5030644152598L3137.0158730158737,1063.9097435897434" stroke="#0098d4" stroke-width="20.517509157509085" fill="none" class="Riverbank station" id="Haymakers"></path></g><g id="Hopbine"><path d="M3300.6800712183526,1725.0597381136856L3285.8181459976227,1709.08384774844" stroke="#00782a" stroke-width="20.517509157509085" fill="none" class="Grantchester station" id="Hopbine"></path></g><g id="HudsonsAleHouse"><path d="M1749.1402950820143,3181.7382106042633L1764.0022203027443,3197.7141009695088" stroke="#000000" stroke-width="20.517509157509085" fill="none" class="Northern station" id="HudsonsAleHouse"></path></g><g id="JennyWren"><path d="M3191.2288037166095,740.4307692307693L3212.2467399267407,740.4307692307693" stroke="#000000" stroke-width="20.517509157509085" fill="none" class="Northern station" id="JennyWren"></path></g><g id="KingsHead"><path d="M4901.997535619255,615.9618003478531L4916.859460839985,631.9376907130986" stroke="#00782a" stroke-width="20.517509157509085" fill="none" class="Grantchester station" id="KingsHead"></path></g><g id="KingstonArms"><path d="M4519.004031345751,2122.056661190609L4533.865956566481,2106.0807708253633" stroke="#e32017" stroke-width="20.517509157509085" fill="none" class="Backstreet station" id="KingstonArms"></path></g><g id="KingStreetRun"><path d="M2795.0573870573876,1564.3697310819261L2795.0573870573876,1541.7764102564101" stroke="#ffd300" stroke-width="20.517509157509085" fill="none" class="Town station" id="KingStreetRun"></path></g><g id="LiveAndLetLive"><path d="M3356.345179086898,2232.3335842675315L3371.207104307629,2216.357693902286" stroke="#a0a5a9" stroke-width="20.517509157509085" fill="none" class="MillRoad station" id="LiveAndLetLive"></path></g><g id="LordByronInn"><path d="M1646.5527492944684,3292.0151336811864L1661.4146745151984,3307.991024046432" stroke="#000000" stroke-width="20.517509157509085" fill="none" class="Northern station" id="LordByronInn"></path></g><g id="Maypole"><path d="M2604.0610619732574,1475.6102564102564L2583.0431257631258,1475.6102564102564" stroke="#000000" stroke-width="20.517509157509085" fill="none" class="Northern station" id="Maypole"></path></g><g id="Med"><path d="M3430.624295882578,2902.3700054760584L3415.7623706618474,2918.345895841304" stroke="#9b0056" stroke-width="20.517509157509085" fill="none" class="HillsRoad station" id="Med"></path></g><g id="Mill"><path d="M2316.315506715507,2122.030268918074L2316.315506715507,2144.62358974359" stroke="#ffd300" stroke-width="20.517509157509085" fill="none" class="Town station" id="Mill"></path></g><g id="Mill"><path d="M2316.315506715507,2166.141038148843L2316.315506715507,2188.7343589743587" stroke="#00782a" stroke-width="20.517509157509085" fill="none" class="Grantchester station" id="Mill"></path></g><g id="Mill"><path d="M2316.315506715507,2210.2518073796123L2316.315506715507,2232.8451282051283" stroke="#9b0056" stroke-width="20.517509157509085" fill="none" class="HillsRoad station" id="Mill"></path></g><g id="MiltonArms"><path d="M2863.4490842490845,829.1902439024389L2863.4490842490845,806.5969230769228" stroke="#000000" stroke-width="20.517509157509085" fill="none" class="Northern station" id="MiltonArms"></path></g><g id="Mitre"><path d="M2316.315506715507,1564.3697310819261L2316.315506715507,1541.7764102564101" stroke="#ffd300" stroke-width="20.517509157509085" fill="none" class="Town station" id="Mitre"></path></g><g id="Mitre"><path d="M2316.315506715507,1520.2589618511572L2316.315506715507,1497.665641025641" stroke="#b36305" stroke-width="20.517509157509085" fill="none" class="Castle station" id="Mitre"></path></g><g id="PantonArms"><path d="M2604.0365099782293,2262.7638516299044L2618.8984351989593,2278.73974199515" stroke="#000000" stroke-width="20.517509157509085" fill="none" class="Northern station" id="PantonArms"></path></g><g id="PintShop"><path d="M2487.29474969475,1858.441525953721L2487.29474969475,1835.848205128205" stroke="#e32017" stroke-width="20.517509157509085" fill="none" class="Backstreet station" id="PintShop"></path></g><g id="Plough"><path d="M4970.389232810953,542.4438516299047L4985.251158031682,558.4197419951497" stroke="#00782a" stroke-width="20.517509157509085" fill="none" class="Grantchester station" id="Plough"></path></g><g id="PortlandArms"><path d="M2282.1196581196587,1086.5030644152598L2282.1196581196587,1063.9097435897434" stroke="#0098d4" stroke-width="20.517509157509085" fill="none" class="Riverbank station" id="PortlandArms"></path></g><g id="PrinceRegent"><path d="M2980.190844532564,2357.314097088045L2995.0527697532943,2341.338206722799" stroke="#9b0056" stroke-width="20.517509157509085" fill="none" class="HillsRoad station" id="PrinceRegent"></path></g><g id="Punter"><path d="M1789.2235632818445,1446.7146208606734L1774.3616380611143,1462.6905112259192" stroke="#b36305" stroke-width="20.517509157509085" fill="none" class="Castle station" id="Punter"></path></g><g id="QueenEdith"><path d="M3649.9536019536026,3018.9492432770485L3649.9536019536026,3041.542564102564" stroke="#9b0056" stroke-width="20.517509157509085" fill="none" class="HillsRoad station" id="QueenEdith"></path></g><g id="RedBull"><path d="M1776.021098901099,2123.106141338337L1776.021098901099,2100.5128205128203" stroke="#00782a" stroke-width="20.517509157509085" fill="none" class="Grantchester station" id="RedBull"></path></g><g id="RedLion"><path d="M935.3036504958457,2732.7671794871794L914.2857142857143,2732.7671794871794" stroke="#00782a" stroke-width="20.517509157509085" fill="none" class="Grantchester station" id="RedLion"></path></g><g id="Rock"><path d="M3225.449204307486,2681.816159322212L3210.587279086755,2697.7920496874576" stroke="#9b0056" stroke-width="20.517509157509085" fill="none" class="HillsRoad station" id="Rock"></path></g><g id="RoyalStandard"><path d="M3738.386933245215,2703.8715439375965L3723.525008024485,2719.847434302842" stroke="#a0a5a9" stroke-width="20.517509157509085" fill="none" class="MillRoad station" id="RoyalStandard"></path></g><g id="RupertBrook"><path d="M935.3036504958457,2659.249230769231L914.2857142857143,2659.249230769231" stroke="#00782a" stroke-width="20.517509157509085" fill="none" class="Grantchester station" id="RupertBrook"></path></g><g id="SalisburyArms"><path d="M3424.7368762785954,2305.8515329854804L3439.598801499326,2289.875642620235" stroke="#a0a5a9" stroke-width="20.517509157509085" fill="none" class="MillRoad station" id="SalisburyArms"></path></g><g id="Ship"><path d="M3191.2288037166095,409.5999999999999L3212.2467399267407,409.5999999999999" stroke="#000000" stroke-width="20.517509157509085" fill="none" class="Northern station" id="Ship"></path></g><g id="SirIsaacNewton"><path d="M1584.048471706753,1226.1607747068274L1569.1865464860227,1242.1366650720727" stroke="#b36305" stroke-width="20.517509157509085" fill="none" class="Castle station" id="SirIsaacNewton"></path></g><g id="SixBells"><path d="M3287.953481895201,2158.815635549583L3302.8154071159315,2142.8397451843375" stroke="#a0a5a9" stroke-width="20.517509157509085" fill="none" class="MillRoad station" id="SixBells"></path></g><g id="StRadegund"><path d="M2917.6620149498203,1732.9230769230771L2938.6799511599515,1732.9230769230771" stroke="#ffd300" stroke-width="20.517509157509085" fill="none" class="Town station" id="StRadegund"></path></g><g id="TramDepot"><path d="M3547.3660561660568,1901.4764227642277L3547.3660561660568,1924.0697435897437" stroke="#e32017" stroke-width="20.517509157509085" fill="none" class="Backstreet station" id="TramDepot"></path></g><g id="Waterman"><path d="M2418.903052503053,1129.5379612257661L2418.903052503053,1152.1312820512821" stroke="#0098d4" stroke-width="20.517509157509085" fill="none" class="Riverbank station" id="Waterman"></path></g><g id="WhiteSwan"><path d="M3493.1285734702924,2379.3694817034293L3507.9904986910233,2363.393591338184" stroke="#a0a5a9" stroke-width="20.517509157509085" fill="none" class="MillRoad station" id="WhiteSwan"></path></g><g id="Wrestlers"><path d="M3725.1844688644696,1534.9625515947464L3725.1844688644696,1512.3692307692306" stroke="#00782a" stroke-width="20.517509157509085" fill="none" class="Grantchester station" id="Wrestlers"></path></g></g><g class="labels"><g id="AlexandraArms" class="label"><text dy="0.1" x="4128.695482295483" y="1968.5946139194139" text-anchor="middle" style="display: block; font-size: 41.03501831501817px; font-family: Hammersmith One, sans-serif; fill: #0019A8; cursor: pointer; font-weight: normal;" class="Backstreet"><tspan x="4128.695482295483" y="1968.5946139194139" dy="0.1em">Alexandra</tspan><tspan x="4128.695482295483" y="1968.5946139194139" dy="1.2000000000000002em">Arms</tspan></text></g><g id="Alma" class="label"><text dy="0.1" x="2539.523801184744" y="2410.054692515635" text-anchor="start" style="display: block; font-size: 41.03501831501817px; font-family: Hammersmith One, sans-serif; fill: #0019A8; cursor: pointer; font-weight: normal;" class="Northern"><tspan x="2539.523801184744" y="2410.054692515635" dy="0.1em">Alma</tspan></text></g><g id="Anchor" class="label"><text dy="0.1" x="2219.199296703297" y="2026.9948717948719" text-anchor="start" style="display: block; font-size: 41.03501831501817px; font-family: Hammersmith One, sans-serif; fill: #0019A8; cursor: pointer; font-weight: normal;" class="Town"><tspan x="2219.199296703297" y="2026.9948717948719" dy="0.1em">Anchor</tspan></text></g><g id="AncientShepherds" class="label"><text dy="0.1" x="4864.8415057024495" y="719.1418720028148" text-anchor="start" style="display: block; font-size: 41.03501831501817px; font-family: Hammersmith One, sans-serif; fill: #0019A8; cursor: pointer; font-weight: normal;" class="Grantchester"><tspan x="4864.8415057024495" y="719.1418720028148" dy="0.1em">Ancient Shepherds</tspan></text></g><g id="Architect" class="label"><text dy="0.1" x="1614.3653319043892" y="1364.9360567013766" text-anchor="end" style="display: block; font-size: 41.03501831501817px; font-family: Hammersmith One, sans-serif; fill: #0019A8; cursor: pointer; font-weight: normal;" class="Castle"><tspan x="1614.3653319043892" y="1364.9360567013766" dy="0.1em">Architect</tspan></text></g><g id="BaronOfBeef" class="label"><text dy="0.1" x="2247.9238095238097" y="1674.5228190476187" text-anchor="middle" style="display: block; font-size: 41.03501831501817px; font-family: Hammersmith One, sans-serif; fill: #0019A8; cursor: pointer; font-weight: normal;" class="Town Castle"><tspan x="2247.9238095238097" y="1674.5228190476187" dy="0.1em">Baron</tspan><tspan x="2247.9238095238097" y="1674.5228190476187" dy="1.2000000000000002em">of Beef</tspan></text></g><g id="BathHouse" class="label"><text dy="0.1" x="2384.7072039072045" y="1968.5946139194139" text-anchor="middle" style="display: block; font-size: 41.03501831501817px; font-family: Hammersmith One, sans-serif; fill: #0019A8; cursor: pointer; font-weight: normal;" class="Backstreet"><tspan x="2384.7072039072045" y="1968.5946139194139" dy="0.1em">Bath House</tspan></text></g><g id="BlueBallInn" class="label"><text dy="0.1" x="874.6185299145302" y="2578.379487179487" text-anchor="end" style="display: block; font-size: 41.03501831501817px; font-family: Hammersmith One, sans-serif; fill: #0019A8; cursor: pointer; font-weight: normal;" class="Grantchester"><tspan x="874.6185299145302" y="2578.379487179487" dy="0.1em">Blue Ball Inn</tspan></text></g><g id="BlueMoon" class="label"><text dy="0.1" x="3957.71623931624" y="1806.0959413919418" text-anchor="middle" style="display: block; font-size: 41.03501831501817px; font-family: Hammersmith One, sans-serif; fill: #0019A8; cursor: pointer; font-weight: normal;" class="Backstreet"><tspan x="3957.71623931624" y="1806.0959413919418" dy="0.1em">Blue Moon</tspan></text></g><g id="Boathouse" class="label"><text dy="0.1" x="2179.532112332113" y="1196.6561523809523" text-anchor="middle" style="display: block; font-size: 41.03501831501817px; font-family: Hammersmith One, sans-serif; fill: #0019A8; cursor: pointer; font-weight: normal;" class="Riverbank"><tspan x="2179.532112332113" y="1196.6561523809523" dy="0.1em">Boathouse</tspan></text></g><g id="BrewHouse" class="label"><text dy="0.1" x="2571.84909258815" y="1640.6283643936845" text-anchor="end" style="display: block; font-size: 41.03501831501817px; font-family: Hammersmith One, sans-serif; fill: #0019A8; cursor: pointer; font-weight: normal;" class="Town"><tspan x="2571.84909258815" y="1640.6283643936845" dy="0.1em">Brew</tspan><tspan x="2571.84909258815" y="1640.6283643936845" dy="1.2000000000000002em">House</tspan></text></g><g id="Brook" class="label"><text dy="0.1" x="3768.7037934428513" y="2835.2950310603514" text-anchor="end" style="display: block; font-size: 41.03501831501817px; font-family: Hammersmith One, sans-serif; fill: #0019A8; cursor: pointer; font-weight: normal;" class="MillRoad"><tspan x="3768.7037934428513" y="2835.2950310603514" dy="0.1em">Brook</tspan></text></g><g id="BurleighArms" class="label"><text dy="0.1" x="3295.141621980156" y="1578.1599369984704" text-anchor="end" style="display: block; font-size: 41.03501831501817px; font-family: Hammersmith One, sans-serif; fill: #0019A8; cursor: pointer; font-weight: normal;" class="Grantchester"><tspan x="3295.141621980156" y="1578.1599369984704" dy="0.1em">Burleigh</tspan><tspan x="3295.141621980156" y="1578.1599369984704" dy="1.2000000000000002em">Arms</tspan></text></g><g id="CambridgeBlue" class="label"><text dy="0.1" x="4488.687171148114" y="2011.5247946638517" text-anchor="start" style="display: block; font-size: 41.03501831501817px; font-family: Hammersmith One, sans-serif; fill: #0019A8; cursor: pointer; font-weight: normal;" class="Backstreet"><tspan x="4488.687171148114" y="2011.5247946638517" dy="0.1em">Cambridge Blue</tspan></text></g><g id="CarltonArms" class="label"><text dy="0.1" x="2179.532112332113" y="629.8087619047619" text-anchor="middle" style="display: block; font-size: 41.03501831501817px; font-family: Hammersmith One, sans-serif; fill: #0019A8; cursor: pointer; font-weight: normal;" class="Castle"><tspan x="2179.532112332113" y="629.8087619047619" dy="0.1em">Carlton Arms</tspan></text></g><g id="CarpentersArms" class="label"><text dy="0.1" x="1682.7570290960864" y="761.7196664587239" text-anchor="end" style="display: block; font-size: 41.03501831501817px; font-family: Hammersmith One, sans-serif; fill: #0019A8; cursor: pointer; font-weight: normal;" class="Castle"><tspan x="1682.7570290960864" y="761.7196664587239" dy="0.1em">Carpenter's Arms</tspan></text></g><g id="CastleInn" class="label"><text dy="0.1" x="1787.2151320760752" y="1284.0881421266756" text-anchor="start" style="display: block; font-size: 41.03501831501817px; font-family: Hammersmith One, sans-serif; fill: #0019A8; cursor: pointer; font-weight: normal;" class="Castle"><tspan x="1787.2151320760752" y="1284.0881421266756" dy="0.1em">Castle</tspan><tspan x="1787.2151320760752" y="1284.0881421266756" dy="1.2000000000000002em">Inn</tspan></text></g><g id="ChampionOfTheThames" class="label"><text dy="0.1" x="2760.861538461539" y="1674.5228190476187" text-anchor="middle" style="display: block; font-size: 41.03501831501817px; font-family: Hammersmith One, sans-serif; fill: #0019A8; cursor: pointer; font-weight: normal;" class="Town"><tspan x="2760.861538461539" y="1674.5228190476187" dy="0.1em">Champion</tspan><tspan x="2760.861538461539" y="1674.5228190476187" dy="1.2000000000000002em">of the</tspan><tspan x="2760.861538461539" y="1674.5228190476187" dy="2.3000000000000003em">Thames</tspan></text></g><g id="ClarendonArms" class="label"><text dy="0.1" x="2845.4158813549393" y="1953.0796464449666" text-anchor="end" style="display: block; font-size: 41.03501831501817px; font-family: Hammersmith One, sans-serif; fill: #0019A8; cursor: pointer; font-weight: normal;" class="Backstreet"><tspan x="2845.4158813549393" y="1953.0796464449666" dy="0.1em">Clarendon</tspan><tspan x="2845.4158813549393" y="1953.0796464449666" dy="1.2000000000000002em">Arms</tspan></text></g><g id="CornerHouse" class="label"><text dy="0.1" x="3649.9536019536026" y="1637.7638446886444" text-anchor="middle" style="display: block; font-size: 41.03501831501817px; font-family: Hammersmith One, sans-serif; fill: #0019A8; cursor: pointer; font-weight: normal;" class="Grantchester"><tspan x="3649.9536019536026" y="1637.7638446886444" dy="0.1em">Corner House</tspan></text></g><g id="Cricketers" class="label"><text dy="0.1" x="3307.9951159951165" y="1968.5946139194139" text-anchor="middle" style="display: block; font-size: 41.03501831501817px; font-family: Hammersmith One, sans-serif; fill: #0019A8; cursor: pointer; font-weight: normal;" class="Backstreet"><tspan x="3307.9951159951165" y="1968.5946139194139" dy="0.1em">Cricketers</tspan></text></g><g id="DevonshireArms" class="label"><text dy="0.1" x="3495.1370046760626" y="2541.2232361885567" text-anchor="end" style="display: block; font-size: 41.03501831501817px; font-family: Hammersmith One, sans-serif; fill: #0019A8; cursor: pointer; font-weight: normal;" class="MillRoad"><tspan x="3495.1370046760626" y="2541.2232361885567" dy="0.1em">Devonshire Arms</tspan></text></g><g id="Dobblers" class="label"><text dy="0.1" x="3786.736996336997" y="1968.5946139194139" text-anchor="middle" style="display: block; font-size: 41.03501831501817px; font-family: Hammersmith One, sans-serif; fill: #0019A8; cursor: pointer; font-weight: normal;" class="Backstreet"><tspan x="3786.736996336997" y="1968.5946139194139" dy="0.1em">Dobblers</tspan></text></g><g id="DukeOfCambridge" class="label"><text dy="0.1" x="3684.149450549451" y="1765.0609230769237" text-anchor="middle" style="display: block; font-size: 41.03501831501817px; font-family: Hammersmith One, sans-serif; fill: #0019A8; cursor: pointer; font-weight: normal;" class="Backstreet"><tspan x="3684.149450549451" y="1765.0609230769237" dy="0.1em">Duke</tspan><tspan x="3684.149450549451" y="1765.0609230769237" dy="1.2000000000000002em">of Cambridge</tspan></text></g><g id="Eagle" class="label"><text dy="0.1" x="2197.5653152262585" y="1827.72992286898" text-anchor="start" style="display: block; font-size: 41.03501831501817px; font-family: Hammersmith One, sans-serif; fill: #0019A8; cursor: pointer; font-weight: normal;" class="Backstreet"><tspan x="2197.5653152262585" y="1827.72992286898" dy="0.1em">Eagle</tspan></text></g><g id="EarlOfBeaconsfield" class="label"><text dy="0.1" x="3667.9868048477483" y="2489.3914613305187" text-anchor="start" style="display: block; font-size: 41.03501831501817px; font-family: Hammersmith One, sans-serif; fill: #0019A8; cursor: pointer; font-weight: normal;" class="MillRoad"><tspan x="3667.9868048477483" y="2489.3914613305187" dy="0.1em">Earl of Beaconsfield</tspan></text></g><g id="EarlOfDerby" class="label"><text dy="0.1" x="3118.982670121728" y="2651.5001592654794" text-anchor="end" style="display: block; font-size: 41.03501831501817px; font-family: Hammersmith One, sans-serif; fill: #0019A8; cursor: pointer; font-weight: normal;" class="HillsRoad"><tspan x="3118.982670121728" y="2651.5001592654794" dy="0.1em">Earl of Derby</tspan></text></g><g id="ElmTree" class="label"><text dy="0.1" x="3118.982670121728" y="1827.72992286898" text-anchor="end" style="display: block; font-size: 41.03501831501817px; font-family: Hammersmith One, sans-serif; fill: #0019A8; cursor: pointer; font-weight: normal;" class="Backstreet"><tspan x="3118.982670121728" y="1827.72992286898" dy="0.1em">Elm Tree</tspan></text></g><g id="Empress" class="label"><text dy="0.1" x="3736.3785020394453" y="2562.909410048467" text-anchor="start" style="display: block; font-size: 41.03501831501817px; font-family: Hammersmith One, sans-serif; fill: #0019A8; cursor: pointer; font-weight: normal;" class="MillRoad"><tspan x="3736.3785020394453" y="2562.909410048467" dy="0.1em">Empress</tspan></text></g><g id="FlyingPig" class="label"><text dy="0.1" x="3155.0490759100194" y="2452.6324869715445" text-anchor="start" style="display: block; font-size: 41.03501831501817px; font-family: Hammersmith One, sans-serif; fill: #0019A8; cursor: pointer; font-weight: normal;" class="HillsRoad"><tspan x="3155.0490759100194" y="2452.6324869715445" dy="0.1em">Flying Pig</tspan></text></g><g id="FortStGeorge" class="label"><text dy="0.1" x="2697.941177045177" y="1402.0923076923077" text-anchor="start" style="display: block; font-size: 41.03501831501817px; font-family: Hammersmith One, sans-serif; fill: #0019A8; cursor: pointer; font-weight: normal;" class="Northern"><tspan x="2697.941177045177" y="1402.0923076923077" dy="0.1em">Fort St George</tspan></text></g><g id="FreePress" class="label"><text dy="0.1" x="3444.778510378511" y="1806.0959413919418" text-anchor="middle" style="display: block; font-size: 41.03501831501817px; font-family: Hammersmith One, sans-serif; fill: #0019A8; cursor: pointer; font-weight: normal;" class="Backstreet"><tspan x="3444.778510378511" y="1806.0959413919418" dy="0.1em">Free Press</tspan></text></g><g id="Geldart" class="label"><text dy="0.1" x="4197.08717948718" y="1806.0959413919418" text-anchor="middle" style="display: block; font-size: 41.03501831501817px; font-family: Hammersmith One, sans-serif; fill: #0019A8; cursor: pointer; font-weight: normal;" class="Backstreet"><tspan x="4197.08717948718" y="1806.0959413919418" dy="0.1em">Geldart</tspan></text></g><g id="GoldenHind" class="label"><text dy="0.1" x="3068.6241758241763" y="939.3433318681317" text-anchor="middle" style="display: block; font-size: 41.03501831501817px; font-family: Hammersmith One, sans-serif; fill: #0019A8; cursor: pointer; font-weight: normal;" class="Northern"><tspan x="3068.6241758241763" y="939.3433318681317" dy="0.1em">Golden Hind</tspan></text></g><g id="GrainStore" class="label"><text dy="0.1" x="2949.8739843349276" y="2232.078640817698" text-anchor="start" style="display: block; font-size: 41.03501831501817px; font-family: Hammersmith One, sans-serif; fill: #0019A8; cursor: pointer; font-weight: normal;" class="HillsRoad"><tspan x="2949.8739843349276" y="2232.078640817698" dy="0.1em">Grain Store</tspan></text></g><g id="Granta" class="label"><text dy="0.1" x="1887.9321206711782" y="2210.3924669577873" text-anchor="end" style="display: block; font-size: 41.03501831501817px; font-family: Hammersmith One, sans-serif; fill: #0019A8; cursor: pointer; font-weight: normal;" class="Riverbank"><tspan x="1887.9321206711782" y="2210.3924669577873" dy="0.1em">Granta</tspan></text></g><g id="Grapes" class="label"><text dy="0.1" x="1614.3653319043892" y="835.2376151766723" text-anchor="end" style="display: block; font-size: 41.03501831501817px; font-family: Hammersmith One, sans-serif; fill: #0019A8; cursor: pointer; font-weight: normal;" class="Castle"><tspan x="1614.3653319043892" y="835.2376151766723" dy="0.1em">Grapes</tspan></text></g><g id="GreenDragon" class="label"><text dy="0.1" x="3273.799267399268" y="1196.6561523809523" text-anchor="middle" style="display: block; font-size: 41.03501831501817px; font-family: Hammersmith One, sans-serif; fill: #0019A8; cursor: pointer; font-weight: normal;" class="Riverbank"><tspan x="3273.799267399268" y="1196.6561523809523" dy="0.1em">Green Dragon</tspan></text></g><g id="GreenManGrantchester" class="label"><text dy="0.1" x="874.6185299145302" y="2798.9333333333334" text-anchor="end" style="display: block; font-size: 41.03501831501817px; font-family: Hammersmith One, sans-serif; fill: #0019A8; cursor: pointer; font-weight: normal;" class="Grantchester"><tspan x="874.6185299145302" y="2798.9333333333334" dy="0.1em">Green Man</tspan></text></g><g id="GreenManTrumpington" class="label"><text dy="0.1" x="1855.6068292677724" y="3145.2341796951227" text-anchor="start" style="display: block; font-size: 41.03501831501817px; font-family: Hammersmith One, sans-serif; fill: #0019A8; cursor: pointer; font-weight: normal;" class="Northern"><tspan x="1855.6068292677724" y="3145.2341796951227" dy="0.1em">Green Man</tspan></text></g><g id="Haymakers" class="label"><text dy="0.1" x="3137.0158730158737" y="1034.1574798534803" text-anchor="middle" style="display: block; font-size: 41.03501831501817px; font-family: Hammersmith One, sans-serif; fill: #0019A8; cursor: pointer; font-weight: normal;" class="Riverbank"><tspan x="3137.0158730158737" y="1034.1574798534803" dy="0.1em">Haymakers</tspan></text></g><g id="Hopbine" class="label"><text dy="0.1" x="3255.7660645051224" y="1680.6940254330827" text-anchor="end" style="display: block; font-size: 41.03501831501817px; font-family: Hammersmith One, sans-serif; fill: #0019A8; cursor: pointer; font-weight: normal;" class="Grantchester"><tspan x="3255.7660645051224" y="1680.6940254330827" dy="0.1em">Hopbine</tspan></text></g><g id="HudsonsAleHouse" class="label"><text dy="0.1" x="1787.2151320760752" y="3218.752128413071" text-anchor="start" style="display: block; font-size: 41.03501831501817px; font-family: Hammersmith One, sans-serif; fill: #0019A8; cursor: pointer; font-weight: normal;" class="Northern"><tspan x="1787.2151320760752" y="3218.752128413071" dy="0.1em">Hudson's Ale House</tspan></text></g><g id="JennyWren" class="label"><text dy="0.1" x="3245.074754578755" y="740.4307692307693" text-anchor="start" style="display: block; font-size: 41.03501831501817px; font-family: Hammersmith One, sans-serif; fill: #0019A8; cursor: pointer; font-weight: normal;" class="Northern"><tspan x="3245.074754578755" y="740.4307692307693" dy="0.1em">Jenny Wren</tspan></text></g><g id="KingsHead" class="label"><text dy="0.1" x="4933.233202894146" y="645.6239232848659" text-anchor="start" style="display: block; font-size: 41.03501831501817px; font-family: Hammersmith One, sans-serif; fill: #0019A8; cursor: pointer; font-weight: normal;" class="Grantchester"><tspan x="4933.233202894146" y="645.6239232848659" dy="0.1em">King's Head</tspan></text></g><g id="KingstonArms" class="label"><text dy="0.1" x="4557.078868339812" y="2085.042743381801" text-anchor="start" style="display: block; font-size: 41.03501831501817px; font-family: Hammersmith One, sans-serif; fill: #0019A8; cursor: pointer; font-weight: normal;" class="Backstreet"><tspan x="4557.078868339812" y="2085.042743381801" dy="0.1em">Kingston Arms</tspan></text></g><g id="KingStreetRun" class="label"><text dy="0.1" x="2795.0573870573876" y="1470.9891282051287" text-anchor="middle" style="display: block; font-size: 41.03501831501817px; font-family: Hammersmith One, sans-serif; fill: #0019A8; cursor: pointer; font-weight: normal;" class="Town"><tspan x="2795.0573870573876" y="1470.9891282051287" dy="0.1em">King Street</tspan><tspan x="2795.0573870573876" y="1470.9891282051287" dy="1.2000000000000002em">Run</tspan></text></g><g id="LiveAndLetLive" class="label"><text dy="0.1" x="3394.420016080959" y="2195.319666458724" text-anchor="start" style="display: block; font-size: 41.03501831501817px; font-family: Hammersmith One, sans-serif; fill: #0019A8; cursor: pointer; font-weight: normal;" class="MillRoad"><tspan x="3394.420016080959" y="2195.319666458724" dy="0.1em">Live and Let Live</tspan></text></g><g id="LordByronInn" class="label"><text dy="0.1" x="1684.6275862885293" y="3329.0290514899943" text-anchor="start" style="display: block; font-size: 41.03501831501817px; font-family: Hammersmith One, sans-serif; fill: #0019A8; cursor: pointer; font-weight: normal;" class="Northern"><tspan x="1684.6275862885293" y="3329.0290514899943" dy="0.1em">Lord Byron Inn</tspan></text></g><g id="Maypole" class="label"><text dy="0.1" x="2550.2151111111116" y="1475.6102564102564" text-anchor="end" style="display: block; font-size: 41.03501831501817px; font-family: Hammersmith One, sans-serif; fill: #0019A8; cursor: pointer; font-weight: normal;" class="Northern"><tspan x="2550.2151111111116" y="1475.6102564102564" dy="0.1em">Maypole</tspan></text></g><g id="Med" class="label"><text dy="0.1" x="3392.5494588885167" y="2945.5719541372746" text-anchor="end" style="display: block; font-size: 41.03501831501817px; font-family: Hammersmith One, sans-serif; fill: #0019A8; cursor: pointer; font-weight: normal;" class="HillsRoad"><tspan x="3392.5494588885167" y="2945.5719541372746" dy="0.1em">Med</tspan></text></g><g id="Mill" class="label"><text dy="0.1" x="2316.315506715507" y="2262.6664087912086" text-anchor="middle" style="display: block; font-size: 41.03501831501817px; font-family: Hammersmith One, sans-serif; fill: #0019A8; cursor: pointer; font-weight: normal;" class="Town Grantchester HillsRoad"><tspan x="2316.315506715507" y="2262.6664087912086" dy="0.1em">Mill</tspan></text></g><g id="MiltonArms" class="label"><text dy="0.1" x="2863.4490842490845" y="776.8446593406597" text-anchor="middle" style="display: block; font-size: 41.03501831501817px; font-family: Hammersmith One, sans-serif; fill: #0019A8; cursor: pointer; font-weight: normal;" class="Northern"><tspan x="2863.4490842490845" y="776.8446593406597" dy="0.1em">Milton Arms</tspan></text></g><g id="Mitre" class="label"><text dy="0.1" x="2316.315506715507" y="1475.2651721611726" text-anchor="middle" style="display: block; font-size: 41.03501831501817px; font-family: Hammersmith One, sans-serif; fill: #0019A8; cursor: pointer; font-weight: normal;" class="Town Castle"><tspan x="2316.315506715507" y="1475.2651721611726" dy="0.1em">Mitre</tspan></text></g><g id="OldSpring" class="label"><text dy="0.1" x="2676.3071955681385" y="1160.2495643105074" text-anchor="start" style="display: block; font-size: 41.03501831501817px; font-family: Hammersmith One, sans-serif; fill: #0019A8; cursor: pointer; font-weight: normal;" class="Northern"><tspan x="2676.3071955681385" y="1160.2495643105074" dy="0.1em">Old Spring</tspan></text></g><g id="PantonArms" class="label"><text dy="0.1" x="2642.11134697229" y="2299.7777694387123" text-anchor="start" style="display: block; font-size: 41.03501831501817px; font-family: Hammersmith One, sans-serif; fill: #0019A8; cursor: pointer; font-weight: normal;" class="Northern"><tspan x="2642.11134697229" y="2299.7777694387123" dy="0.1em">Panton</tspan><tspan x="2642.11134697229" y="2299.7777694387123" dy="1.2000000000000002em">Arms</tspan></text></g><g id="Pickerel" class="label"><text dy="0.1" x="1887.9321206711782" y="1622.2488772141974" text-anchor="end" style="display: block; font-size: 41.03501831501817px; font-family: Hammersmith One, sans-serif; fill: #0019A8; cursor: pointer; font-weight: normal;" class="Castle"><tspan x="1887.9321206711782" y="1622.2488772141974" dy="0.1em">Pickerel</tspan></text></g><g id="PintShop" class="label"><text dy="0.1" x="2487.29474969475" y="1806.0959413919418" text-anchor="middle" style="display: block; font-size: 41.03501831501817px; font-family: Hammersmith One, sans-serif; fill: #0019A8; cursor: pointer; font-weight: normal;" class="Backstreet"><tspan x="2487.29474969475" y="1806.0959413919418" dy="0.1em">Pint Shop</tspan></text></g><g id="Plough" class="label"><text dy="0.1" x="5001.624900085843" y="572.1059745669174" text-anchor="start" style="display: block; font-size: 41.03501831501817px; font-family: Hammersmith One, sans-serif; fill: #0019A8; cursor: pointer; font-weight: normal;" class="Grantchester"><tspan x="5001.624900085843" y="572.1059745669174" dy="0.1em">Plough</tspan></text></g><g id="PortlandArms" class="label"><text dy="0.1" x="2282.1196581196587" y="1034.1574798534803" text-anchor="middle" style="display: block; font-size: 41.03501831501817px; font-family: Hammersmith One, sans-serif; fill: #0019A8; cursor: pointer; font-weight: normal;" class="Riverbank"><tspan x="2282.1196581196587" y="1034.1574798534803" dy="0.1em">Portland Arms</tspan></text></g><g id="PrinceRegent" class="label"><text dy="0.1" x="3018.2656815266246" y="2305.5965895356467" text-anchor="start" style="display: block; font-size: 41.03501831501817px; font-family: Hammersmith One, sans-serif; fill: #0019A8; cursor: pointer; font-weight: normal;" class="HillsRoad"><tspan x="3018.2656815266246" y="2305.5965895356467" dy="0.1em">Prince Regent</tspan></text></g><g id="Punter" class="label"><text dy="0.1" x="1751.1487262877836" y="1511.971954137274" text-anchor="end" style="display: block; font-size: 41.03501831501817px; font-family: Hammersmith One, sans-serif; fill: #0019A8; cursor: pointer; font-weight: normal;" class="Castle"><tspan x="1751.1487262877836" y="1511.971954137274" dy="0.1em">Punter</tspan></text></g><g id="QueenEdith" class="label"><text dy="0.1" x="3649.9536019536026" y="3071.363844688645" text-anchor="middle" style="display: block; font-size: 41.03501831501817px; font-family: Hammersmith One, sans-serif; fill: #0019A8; cursor: pointer; font-weight: normal;" class="HillsRoad"><tspan x="3649.9536019536026" y="3071.363844688645" dy="0.1em">Queen Edith</tspan></text></g><g id="RedBull" class="label"><text dy="0.1" x="1769.1819291819293" y="2063.4087619047623" text-anchor="middle" style="display: block; font-size: 41.03501831501817px; font-family: Hammersmith One, sans-serif; fill: #0019A8; cursor: pointer; font-weight: normal;" class="Grantchester"><tspan x="1769.1819291819293" y="2063.4087619047623" dy="0.1em">Red Bull</tspan></text></g><g id="RedLion" class="label"><text dy="0.1" x="874.6185299145302" y="2725.415384615385" text-anchor="end" style="display: block; font-size: 41.03501831501817px; font-family: Hammersmith One, sans-serif; fill: #0019A8; cursor: pointer; font-weight: normal;" class="Grantchester"><tspan x="874.6185299145302" y="2725.415384615385" dy="0.1em">Red Lion</tspan></text></g><g id="Regal" class="label"><text dy="0.1" x="2571.84909258815" y="2048.283769022826" text-anchor="end" style="display: block; font-size: 41.03501831501817px; font-family: Hammersmith One, sans-serif; fill: #0019A8; cursor: pointer; font-weight: normal;" class="Town"><tspan x="2571.84909258815" y="2048.283769022826" dy="0.1em">Regal</tspan></text></g><g id="Rock" class="label"><text dy="0.1" x="3187.3743673134254" y="2725.0181079834283" text-anchor="end" style="display: block; font-size: 41.03501831501817px; font-family: Hammersmith One, sans-serif; fill: #0019A8; cursor: pointer; font-weight: normal;" class="HillsRoad"><tspan x="3187.3743673134254" y="2725.0181079834283" dy="0.1em">Rock</tspan></text></g><g id="RoyalStandard" class="label"><text dy="0.1" x="3700.3120962511543" y="2761.7770823424025" text-anchor="end" style="display: block; font-size: 41.03501831501817px; font-family: Hammersmith One, sans-serif; fill: #0019A8; cursor: pointer; font-weight: normal;" class="MillRoad"><tspan x="3700.3120962511543" y="2761.7770823424025" dy="0.1em">Royal Standard</tspan></text></g><g id="RupertBrook" class="label"><text dy="0.1" x="874.6185299145302" y="2651.897435897436" text-anchor="end" style="display: block; font-size: 41.03501831501817px; font-family: Hammersmith One, sans-serif; fill: #0019A8; cursor: pointer; font-weight: normal;" class="Grantchester"><tspan x="874.6185299145302" y="2651.897435897436" dy="0.1em">Rupert Brooke</tspan></text></g><g id="SalisburyArms" class="label"><text dy="0.1" x="3462.8117132726566" y="2268.8376151766724" text-anchor="start" style="display: block; font-size: 41.03501831501817px; font-family: Hammersmith One, sans-serif; fill: #0019A8; cursor: pointer; font-weight: normal;" class="MillRoad"><tspan x="3462.8117132726566" y="2268.8376151766724" dy="0.1em">Salisbury Arms</tspan></text></g><g id="Ship" class="label"><text dy="0.1" x="3245.074754578755" y="409.5999999999999" text-anchor="start" style="display: block; font-size: 41.03501831501817px; font-family: Hammersmith One, sans-serif; fill: #0019A8; cursor: pointer; font-weight: normal;" class="Northern"><tspan x="3245.074754578755" y="409.5999999999999" dy="0.1em">Ship</tspan></text></g><g id="SirIsaacNewton" class="label"><text dy="0.1" x="1545.973634712692" y="1291.4181079834277" text-anchor="end" style="display: block; font-size: 41.03501831501817px; font-family: Hammersmith One, sans-serif; fill: #0019A8; cursor: pointer; font-weight: normal;" class="Castle"><tspan x="1545.973634712692" y="1291.4181079834277" dy="0.1em">Sir Isaac Newton</tspan></text></g><g id="SixBells" class="label"><text dy="0.1" x="3326.028318889262" y="2121.801717740775" text-anchor="start" style="display: block; font-size: 41.03501831501817px; font-family: Hammersmith One, sans-serif; fill: #0019A8; cursor: pointer; font-weight: normal;" class="MillRoad"><tspan x="3326.028318889262" y="2121.801717740775" dy="0.1em">Six Bells</tspan></text></g><g id="StRadegund" class="label"><text dy="0.1" x="2971.507965811966" y="1732.9230769230771" text-anchor="start" style="display: block; font-size: 41.03501831501817px; font-family: Hammersmith One, sans-serif; fill: #0019A8; cursor: pointer; font-weight: normal;" class="Town"><tspan x="2971.507965811966" y="1732.9230769230771" dy="0.1em">St Radegund</tspan></text></g><g id="TramDepot" class="label"><text dy="0.1" x="3547.3660561660568" y="1968.5946139194139" text-anchor="middle" style="display: block; font-size: 41.03501831501817px; font-family: Hammersmith One, sans-serif; fill: #0019A8; cursor: pointer; font-weight: normal;" class="Backstreet"><tspan x="3547.3660561660568" y="1968.5946139194139" dy="0.1em">Tram Depot</tspan></text></g><g id="Waterman" class="label"><text dy="0.1" x="2418.903052503053" y="1196.6561523809523" text-anchor="middle" style="display: block; font-size: 41.03501831501817px; font-family: Hammersmith One, sans-serif; fill: #0019A8; cursor: pointer; font-weight: normal;" class="Riverbank"><tspan x="2418.903052503053" y="1196.6561523809523" dy="0.1em">Waterman</tspan></text></g><g id="WhiteSwan" class="label"><text dy="0.1" x="3531.203410464354" y="2342.3555638946214" text-anchor="start" style="display: block; font-size: 41.03501831501817px; font-family: Hammersmith One, sans-serif; fill: #0019A8; cursor: pointer; font-weight: normal;" class="MillRoad"><tspan x="3531.203410464354" y="2342.3555638946214" dy="0.1em">White Swan</tspan></text></g><g id="Wrestlers" class="label"><text dy="0.1" x="3718.3452991452996" y="1475.2651721611726" text-anchor="middle" style="display: block; font-size: 41.03501831501817px; font-family: Hammersmith One, sans-serif; fill: #0019A8; cursor: pointer; font-weight: normal;" class="Grantchester"><tspan x="3718.3452991452996" y="1475.2651721611726" dy="0.1em">Wrestlers</tspan></text></g></g><g class="geoStations" style="display: none;"><path d="M6.281675479055002e-16,-10.258754578754543A10.258754578754543,10.258754578754543,0,1,1,-6.281675479055002e-16,10.258754578754543A10.258754578754543,10.258754578754543,0,1,1,6.281675479055002e-16,-10.258754578754543Z" transform="translate(2841.720406615081,1579.6620192731334)" id="AlexandraArms" fill="#888888"></path><path d="M6.281675479055002e-16,-10.258754578754543A10.258754578754543,10.258754578754543,0,1,1,-6.281675479055002e-16,10.258754578754543A10.258754578754543,10.258754578754543,0,1,1,6.281675479055002e-16,-10.258754578754543Z" transform="translate(1980.1994234562276,2034.4411958493395)" id="Alma" fill="#888888"></path><path d="M6.281675479055002e-16,-10.258754578754543A10.258754578754543,10.258754578754543,0,1,1,-6.281675479055002e-16,10.258754578754543A10.258754578754543,10.258754578754543,0,1,1,6.281675479055002e-16,-10.258754578754543Z" transform="translate(1375.214443938704,1687.0933530644095)" id="Anchor" fill="#888888"></path><path d="M6.281675479055002e-16,-10.258754578754543A10.258754578754543,10.258754578754543,0,1,1,-6.281675479055002e-16,10.258754578754543A10.258754578754543,10.258754578754543,0,1,1,6.281675479055002e-16,-10.258754578754543Z" transform="translate(4915.200000000001,626.2883075243244)" id="AncientShepherds" fill="#888888"></path><path d="M6.281675479055002e-16,-10.258754578754543A10.258754578754543,10.258754578754543,0,1,1,-6.281675479055002e-16,10.258754578754543A10.258754578754543,10.258754578754543,0,1,1,6.281675479055002e-16,-10.258754578754543Z" transform="translate(1213.4500986193295,1105.2554093335666)" id="Architect" fill="#888888"></path><path d="M6.281675479055002e-16,-10.258754578754543A10.258754578754543,10.258754578754543,0,1,1,-6.281675479055002e-16,10.258754578754543A10.258754578754543,10.258754578754543,0,1,1,6.281675479055002e-16,-10.258754578754543Z" transform="translate(1521.8774692762856,1289.1182777510899)" id="BaronOfBeef" fill="#888888"></path><path d="M6.281675479055002e-16,-10.258754578754543A10.258754578754543,10.258754578754543,0,1,1,-6.281675479055002e-16,10.258754578754543A10.258754578754543,10.258754578754543,0,1,1,6.281675479055002e-16,-10.258754578754543Z" transform="translate(1543.0690335305715,1567.366009548359)" id="BathHouse" fill="#888888"></path><path d="M6.281675479055002e-16,-10.258754578754543A10.258754578754543,10.258754578754543,0,1,1,-6.281675479055002e-16,10.258754578754543A10.258754578754543,10.258754578754543,0,1,1,6.281675479055002e-16,-10.258754578754543Z" transform="translate(28.02755272341028,2766.3712770641764)" id="BlueBallInn" fill="#888888"></path><path d="M6.281675479055002e-16,-10.258754578754543A10.258754578754543,10.258754578754543,0,1,1,-6.281675479055002e-16,10.258754578754543A10.258754578754543,10.258754578754543,0,1,1,6.281675479055002e-16,-10.258754578754543Z" transform="translate(2673.4307995751774,1526.494765956815)" id="BlueMoon" fill="#888888"></path><path d="M6.281675479055002e-16,-10.258754578754543A10.258754578754543,10.258754578754543,0,1,1,-6.281675479055002e-16,10.258754578754543A10.258754578754543,10.258754578754543,0,1,1,6.281675479055002e-16,-10.258754578754543Z" transform="translate(1857.7730845091787,1010.5241794831686)" id="Boathouse" fill="#888888"></path><path d="M6.281675479055002e-16,-10.258754578754543A10.258754578754543,10.258754578754543,0,1,1,-6.281675479055002e-16,10.258754578754543A10.258754578754543,10.258754578754543,0,1,1,6.281675479055002e-16,-10.258754578754543Z" transform="translate(1777.1084205735092,1374.6130683720571)" id="BrewHouse" fill="#888888"></path><path d="M6.281675479055002e-16,-10.258754578754543A10.258754578754543,10.258754578754543,0,1,1,-6.281675479055002e-16,10.258754578754543A10.258754578754543,10.258754578754543,0,1,1,6.281675479055002e-16,-10.258754578754543Z" transform="translate(3840.5826126536194,2029.2456987825797)" id="Brook" fill="#888888"></path><path d="M6.281675479055002e-16,-10.258754578754543A10.258754578754543,10.258754578754543,0,1,1,-6.281675479055002e-16,10.258754578754543A10.258754578754543,10.258754578754543,0,1,1,6.281675479055002e-16,-10.258754578754543Z" transform="translate(2437.6513427401,1330.0472490880848)" id="BurleighArms" fill="#888888"></path><path d="M6.281675479055002e-16,-10.258754578754543A10.258754578754543,10.258754578754543,0,1,1,-6.281675479055002e-16,10.258754578754543A10.258754578754543,10.258754578754543,0,1,1,6.281675479055002e-16,-10.258754578754543Z" transform="translate(2830.347807616446,1668.1009248981334)" id="CambridgeBlue" fill="#888888"></path><path d="M6.281675479055002e-16,-10.258754578754543A10.258754578754543,10.258754578754543,0,1,1,-6.281675479055002e-16,10.258754578754543A10.258754578754543,10.258754578754543,0,1,1,6.281675479055002e-16,-10.258754578754543Z" transform="translate(1289.2052799271733,529.709789827712)" id="CarltonArms" fill="#888888"></path><path d="M6.281675479055002e-16,-10.258754578754543A10.258754578754543,10.258754578754543,0,1,1,-6.281675479055002e-16,10.258754578754543A10.258754578754543,10.258754578754543,0,1,1,6.281675479055002e-16,-10.258754578754543Z" transform="translate(1289.2052799271733,892.7018515579625)" id="CarpentersArms" fill="#888888"></path><path d="M6.281675479055002e-16,-10.258754578754543A10.258754578754543,10.258754578754543,0,1,1,-6.281675479055002e-16,10.258754578754543A10.258754578754543,10.258754578754543,0,1,1,6.281675479055002e-16,-10.258754578754543Z" transform="translate(1238.121802457897,1112.9331994432155)" id="CastleInn" fill="#888888"></path><path d="M6.281675479055002e-16,-10.258754578754543A10.258754578754543,10.258754578754543,0,1,1,-6.281675479055002e-16,10.258754578754543A10.258754578754543,10.258754578754543,0,1,1,6.281675479055002e-16,-10.258754578754543Z" transform="translate(1915.443969048703,1379.4621989677544)" id="ChampionOfTheThames" fill="#888888"></path><path d="M6.281675479055002e-16,-10.258754578754543A10.258754578754543,10.258754578754543,0,1,1,-6.281675479055002e-16,10.258754578754543A10.258754578754543,10.258754578754543,0,1,1,6.281675479055002e-16,-10.258754578754543Z" transform="translate(2116.049157942648,1534.057100575973)" id="ClarendonArms" fill="#888888"></path><path d="M6.281675479055002e-16,-10.258754578754543A10.258754578754543,10.258754578754543,0,1,1,-6.281675479055002e-16,10.258754578754543A10.258754578754543,10.258754578754543,0,1,1,6.281675479055002e-16,-10.258754578754543Z" transform="translate(3091.1096950386886,1254.9434526010473)" id="CornerHouse" fill="#888888"></path><path d="M6.281675479055002e-16,-10.258754578754543A10.258754578754543,10.258754578754543,0,1,1,-6.281675479055002e-16,10.258754578754543A10.258754578754543,10.258754578754543,0,1,1,6.281675479055002e-16,-10.258754578754543Z" transform="translate(2232.88241541496,1516.5078660393979)" id="Cricketers" fill="#888888"></path><path d="M6.281675479055002e-16,-10.258754578754543A10.258754578754543,10.258754578754543,0,1,1,-6.281675479055002e-16,10.258754578754543A10.258754578754543,10.258754578754543,0,1,1,6.281675479055002e-16,-10.258754578754543Z" transform="translate(2824.5061447428316,1864.6061695119042)" id="DevonshireArms" fill="#888888"></path><path d="M6.281675479055002e-16,-10.258754578754543A10.258754578754543,10.258754578754543,0,1,1,-6.281675479055002e-16,10.258754578754543A10.258754578754543,10.258754578754543,0,1,1,6.281675479055002e-16,-10.258754578754543Z" transform="translate(2882.736337429829,1489.4912812924103)" id="Dobblers" fill="#888888"></path><path d="M6.281675479055002e-16,-10.258754578754543A10.258754578754543,10.258754578754543,0,1,1,-6.281675479055002e-16,10.258754578754543A10.258754578754543,10.258754578754543,0,1,1,6.281675479055002e-16,-10.258754578754543Z" transform="translate(2486.062570171446,1521.299268890055)" id="DukeOfCambridge" fill="#888888"></path><path d="M6.281675479055002e-16,-10.258754578754543A10.258754578754543,10.258754578754543,0,1,1,-6.281675479055002e-16,10.258754578754543A10.258754578754543,10.258754578754543,0,1,1,6.281675479055002e-16,-10.258754578754543Z" transform="translate(1517.2787133970562,1573.0810563217128)" id="Eagle" fill="#888888"></path><path d="M6.281675479055002e-16,-10.258754578754543A10.258754578754543,10.258754578754543,0,1,1,-6.281675479055002e-16,10.258754578754543A10.258754578754543,10.258754578754543,0,1,1,6.281675479055002e-16,-10.258754578754543Z" transform="translate(3017.591746320741,1894.0473195567404)" id="EarlOfBeaconsfield" fill="#888888"></path><path d="M6.281675479055002e-16,-10.258754578754543A10.258754578754543,10.258754578754543,0,1,1,-6.281675479055002e-16,10.258754578754543A10.258754578754543,10.258754578754543,0,1,1,6.281675479055002e-16,-10.258754578754543Z" transform="translate(2513.7793961462603,2259.002124623286)" id="EarlOfDerby" fill="#888888"></path><path d="M6.281675479055002e-16,-10.258754578754543A10.258754578754543,10.258754578754543,0,1,1,-6.281675479055002e-16,10.258754578754543A10.258754578754543,10.258754578754543,0,1,1,6.281675479055002e-16,-10.258754578754543Z" transform="translate(2229.4022758306783,1506.6941493579227)" id="ElmTree" fill="#888888"></path><path d="M6.281675479055002e-16,-10.258754578754543A10.258754578754543,10.258754578754543,0,1,1,-6.281675479055002e-16,10.258754578754543A10.258754578754543,10.258754578754543,0,1,1,6.281675479055002e-16,-10.258754578754543Z" transform="translate(3329.934274010014,1851.0978771384102)" id="Empress" fill="#888888"></path><path d="M6.281675479055002e-16,-10.258754578754543A10.258754578754543,10.258754578754543,0,1,1,-6.281675479055002e-16,10.258754578754543A10.258754578754543,10.258754578754543,0,1,1,6.281675479055002e-16,-10.258754578754543Z" transform="translate(2368.8564406008195,2121.494635590089)" id="FlyingPig" fill="#888888"></path><path d="M6.281675479055002e-16,-10.258754578754543A10.258754578754543,10.258754578754543,0,1,1,-6.281675479055002e-16,10.258754578754543A10.258754578754543,10.258754578754543,0,1,1,6.281675479055002e-16,-10.258754578754543Z" transform="translate(2123.6930359581243,1080.259295667914)" id="FortStGeorge" fill="#888888"></path><path d="M6.281675479055002e-16,-10.258754578754543A10.258754578754543,10.258754578754543,0,1,1,-6.281675479055002e-16,10.258754578754543A10.258754578754543,10.258754578754543,0,1,1,6.281675479055002e-16,-10.258754578754543Z" transform="translate(2284.2144742831133,1528.8616035092127)" id="FreePress" fill="#888888"></path><path d="M6.281675479055002e-16,-10.258754578754543A10.258754578754543,10.258754578754543,0,1,1,-6.281675479055002e-16,10.258754578754543A10.258754578754543,10.258754578754543,0,1,1,6.281675479055002e-16,-10.258754578754543Z" transform="translate(3020.388287058109,1589.1293694835463)" id="Geldart" fill="#888888"></path><path d="M6.281675479055002e-16,-10.258754578754543A10.258754578754543,10.258754578754543,0,1,1,-6.281675479055002e-16,10.258754578754543A10.258754578754543,10.258754578754543,0,1,1,6.281675479055002e-16,-10.258754578754543Z" transform="translate(3225.03292368381,190.61701460447512)" id="GoldenHind" fill="#888888"></path><path d="M6.281675479055002e-16,-10.258754578754543A10.258754578754543,10.258754578754543,0,1,1,-6.281675479055002e-16,10.258754578754543A10.258754578754543,10.258754578754543,0,1,1,6.281675479055002e-16,-10.258754578754543Z" transform="translate(2050.3615232893344,1762.7166992584507)" id="GrainStore" fill="#888888"></path><path d="M6.281675479055002e-16,-10.258754578754543A10.258754578754543,10.258754578754543,0,1,1,-6.281675479055002e-16,10.258754578754543A10.258754578754543,10.258754578754543,0,1,1,6.281675479055002e-16,-10.258754578754543Z" transform="translate(1249.1836747079346,1819.8094392473595)" id="Granta" fill="#888888"></path><path d="M6.281675479055002e-16,-10.258754578754543A10.258754578754543,10.258754578754543,0,1,1,-6.281675479055002e-16,10.258754578754543A10.258754578754543,10.258754578754543,0,1,1,6.281675479055002e-16,-10.258754578754543Z" transform="translate(1065.4198755879224,938.7108644716363)" id="Grapes" fill="#888888"></path><path d="M6.281675479055002e-16,-10.258754578754543A10.258754578754543,10.258754578754543,0,1,1,-6.281675479055002e-16,10.258754578754543A10.258754578754543,10.258754578754543,0,1,1,6.281675479055002e-16,-10.258754578754543Z" transform="translate(3219.377696859354,765.816267638857)" id="GreenDragon" fill="#888888"></path><path d="M6.281675479055002e-16,-10.258754578754543A10.258754578754543,10.258754578754543,0,1,1,-6.281675479055002e-16,10.258754578754543A10.258754578754543,10.258754578754543,0,1,1,6.281675479055002e-16,-10.258754578754543Z" transform="translate(96.0145653163399,2954.7369096067446)" id="GreenManGrantchester" fill="#888888"></path><path d="M6.281675479055002e-16,-10.258754578754543A10.258754578754543,10.258754578754543,0,1,1,-6.281675479055002e-16,10.258754578754543A10.258754578754543,10.258754578754543,0,1,1,6.281675479055002e-16,-10.258754578754543Z" transform="translate(1207.1734182976786,3155.3985518736768)" id="GreenManTrumpington" fill="#888888"></path><path d="M6.281675479055002e-16,-10.258754578754543A10.258754578754543,10.258754578754543,0,1,1,-6.281675479055002e-16,10.258754578754543A10.258754578754543,10.258754578754543,0,1,1,6.281675479055002e-16,-10.258754578754543Z" transform="translate(2846.8784706417846,801.5497419090916)" id="Haymakers" fill="#888888"></path><path d="M6.281675479055002e-16,-10.258754578754543A10.258754578754543,10.258754578754543,0,1,1,-6.281675479055002e-16,10.258754578754543A10.258754578754543,10.258754578754543,0,1,1,6.281675479055002e-16,-10.258754578754543Z" transform="translate(2221.758397815202,1377.3262723955181)" id="Hopbine" fill="#888888"></path><path d="M6.281675479055002e-16,-10.258754578754543A10.258754578754543,10.258754578754543,0,1,1,-6.281675479055002e-16,10.258754578754543A10.258754578754543,10.258754578754543,0,1,1,6.281675479055002e-16,-10.258754578754543Z" transform="translate(1184.7389470490061,3238.4687771963854)" id="HudsonsAleHouse" fill="#888888"></path><path d="M6.281675479055002e-16,-10.258754578754543A10.258754578754543,10.258754578754543,0,1,1,-6.281675479055002e-16,10.258754578754543A10.258754578754543,10.258754578754543,0,1,1,6.281675479055002e-16,-10.258754578754543Z" transform="translate(2715.8760734334705,95.07759632146099)" id="JennyWren" fill="#888888"></path><path d="M6.281675479055002e-16,-10.258754578754543A10.258754578754543,10.258754578754543,0,1,1,-6.281675479055002e-16,10.258754578754543A10.258754578754543,10.258754578754543,0,1,1,6.281675479055002e-16,-10.258754578754543Z" transform="translate(4737.899317250796,566.1590881384163)" id="KingsHead" fill="#888888"></path><path d="M6.281675479055002e-16,-10.258754578754543A10.258754578754543,10.258754578754543,0,1,1,-6.281675479055002e-16,10.258754578754543A10.258754578754543,10.258754578754543,0,1,1,6.281675479055002e-16,-10.258754578754543Z" transform="translate(2867.0757093005614,1782.2286771313209)" id="KingstonArms" fill="#888888"></path><path d="M6.281675479055002e-16,-10.258754578754543A10.258754578754543,10.258754578754543,0,1,1,-6.281675479055002e-16,10.258754578754543A10.258754578754543,10.258754578754543,0,1,1,6.281675479055002e-16,-10.258754578754543Z" transform="translate(1961.92869063875,1384.5422405440238)" id="KingStreetRun" fill="#888888"></path><path d="M6.281675479055002e-16,-10.258754578754543A10.258754578754543,10.258754578754543,0,1,1,-6.281675479055002e-16,10.258754578754543A10.258754578754543,10.258754578754543,0,1,1,6.281675479055002e-16,-10.258754578754543Z" transform="translate(2573.3767865270815,1836.492757606278)" id="LiveAndLetLive" fill="#888888"></path><path d="M6.281675479055002e-16,-10.258754578754543A10.258754578754543,10.258754578754543,0,1,1,-6.281675479055002e-16,10.258754578754543A10.258754578754543,10.258754578754543,0,1,1,6.281675479055002e-16,-10.258754578754543Z" transform="translate(1045.7197997269,3276.8)" id="LordByronInn" fill="#888888"></path><path d="M6.281675479055002e-16,-10.258754578754543A10.258754578754543,10.258754578754543,0,1,1,-6.281675479055002e-16,10.258754578754543A10.258754578754543,10.258754578754543,0,1,1,6.281675479055002e-16,-10.258754578754543Z" transform="translate(1591.107388863602,1244.2060919964647)" id="Maypole" fill="#888888"></path><path d="M6.281675479055002e-16,-10.258754578754543A10.258754578754543,10.258754578754543,0,1,1,-6.281675479055002e-16,10.258754578754543A10.258754578754543,10.258754578754543,0,1,1,6.281675479055002e-16,-10.258754578754543Z" transform="translate(3716.167622515552,2429.9917058648107)" id="Med" fill="#888888"></path><path d="M6.281675479055002e-16,-10.258754578754543A10.258754578754543,10.258754578754543,0,1,1,-6.281675479055002e-16,10.258754578754543A10.258754578754543,10.258754578754543,0,1,1,6.281675479055002e-16,-10.258754578754543Z" transform="translate(1398.2082233348501,1712.8976551626777)" id="Mill" fill="#888888"></path><path d="M6.281675479055002e-16,-10.258754578754543A10.258754578754543,10.258754578754543,0,1,1,-6.281675479055002e-16,10.258754578754543A10.258754578754543,10.258754578754543,0,1,1,6.281675479055002e-16,-10.258754578754543Z" transform="translate(2676.227340312548,493.22585487031165)" id="MiltonArms" fill="#888888"></path><path d="M6.281675479055002e-16,-10.258754578754543A10.258754578754543,10.258754578754543,0,1,1,-6.281675479055002e-16,10.258754578754543A10.258754578754543,10.258754578754543,0,1,1,6.281675479055002e-16,-10.258754578754543Z" transform="translate(1526.0412077074798,1291.485115303898)" id="Mitre" fill="#888888"></path><path d="M6.281675479055002e-16,-10.258754578754543A10.258754578754543,10.258754578754543,0,1,1,-6.281675479055002e-16,10.258754578754543A10.258754578754543,10.258754578754543,0,1,1,6.281675479055002e-16,-10.258754578754543Z" transform="translate(2118.5349719314213,971.6156792275092)" id="OldSpring" fill="#888888"></path><path d="M6.281675479055002e-16,-10.258754578754543A10.258754578754543,10.258754578754543,0,1,1,-6.281675479055002e-16,10.258754578754543A10.258754578754543,10.258754578754543,0,1,1,6.281675479055002e-16,-10.258754578754543Z" transform="translate(1948.753876498255,2005.0577735495435)" id="PantonArms" fill="#888888"></path><path d="M6.281675479055002e-16,-10.258754578754543A10.258754578754543,10.258754578754543,0,1,1,-6.281675479055002e-16,10.258754578754543A10.258754578754543,10.258754578754543,0,1,1,6.281675479055002e-16,-10.258754578754543Z" transform="translate(1403.2419966621153,1227.8114123635687)" id="Pickerel" fill="#888888"></path><path d="M6.281675479055002e-16,-10.258754578754543A10.258754578754543,10.258754578754543,0,1,1,-6.281675479055002e-16,10.258754578754543A10.258754578754543,10.258754578754543,0,1,1,6.281675479055002e-16,-10.258754578754543Z" transform="translate(1585.5143073888632,1560.3809523808352)" id="PintShop" fill="#888888"></path><path d="M6.281675479055002e-16,-10.258754578754543A10.258754578754543,10.258754578754543,0,1,1,-6.281675479055002e-16,10.258754578754543A10.258754578754543,10.258754578754543,0,1,1,6.281675479055002e-16,-10.258754578754543Z" transform="translate(4636.105234410559,412.6956503355327)" id="Plough" fill="#888888"></path><path d="M6.281675479055002e-16,-10.258754578754543A10.258754578754543,10.258754578754543,0,1,1,-6.281675479055002e-16,10.258754578754543A10.258754578754543,10.258754578754543,0,1,1,6.281675479055002e-16,-10.258754578754543Z" transform="translate(1920.0427249279317,969.7106636362546)" id="PortlandArms" fill="#888888"></path><path d="M6.281675479055002e-16,-10.258754578754543A10.258754578754543,10.258754578754543,0,1,1,-6.281675479055002e-16,10.258754578754543A10.258754578754543,10.258754578754543,0,1,1,6.281675479055002e-16,-10.258754578754543Z" transform="translate(2068.1972386587763,1806.301146873866)" id="PrinceRegent" fill="#888888"></path><path d="M6.281675479055002e-16,-10.258754578754543A10.258754578754543,10.258754578754543,0,1,1,-6.281675479055002e-16,10.258754578754543A10.258754578754543,10.258754578754543,0,1,1,6.281675479055002e-16,-10.258754578754543Z" transform="translate(1221.280412683963,1193.3479484875038)" id="Punter" fill="#888888"></path><path d="M6.281675479055002e-16,-10.258754578754543A10.258754578754543,10.258754578754543,0,1,1,-6.281675479055002e-16,10.258754578754543A10.258754578754543,10.258754578754543,0,1,1,6.281675479055002e-16,-10.258754578754543Z" transform="translate(3685.094947655895,2941.805894684885)" id="QueenEdith" fill="#888888"></path><path d="M6.281675479055002e-16,-10.258754578754543A10.258754578754543,10.258754578754543,0,1,1,-6.281675479055002e-16,10.258754578754543A10.258754578754543,10.258754578754543,0,1,1,6.281675479055002e-16,-10.258754578754543Z" transform="translate(933.9203155818541,2005.2886845305256)" id="RedBull" fill="#888888"></path><path d="M6.281675479055002e-16,-10.258754578754543A10.258754578754543,10.258754578754543,0,1,1,-6.281675479055002e-16,10.258754578754543A10.258754578754543,10.258754578754543,0,1,1,6.281675479055002e-16,-10.258754578754543Z" transform="translate(122.67492034592563,2937.2454028152097)" id="RedLion" fill="#888888"></path><path d="M6.281675479055002e-16,-10.258754578754543A10.258754578754543,10.258754578754543,0,1,1,-6.281675479055002e-16,10.258754578754543A10.258754578754543,10.258754578754543,0,1,1,6.281675479055002e-16,-10.258754578754543Z" transform="translate(1875.3602184797448,1632.3674506278985)" id="Regal" fill="#888888"></path><path d="M6.281675479055002e-16,-10.258754578754543A10.258754578754543,10.258754578754543,0,1,1,-6.281675479055002e-16,10.258754578754543A10.258754578754543,10.258754578754543,0,1,1,6.281675479055002e-16,-10.258754578754543Z" transform="translate(3299.110180549235,2523.9147472825925)" id="Rock" fill="#888888"></path><path d="M6.281675479055002e-16,-10.258754578754543A10.258754578754543,10.258754578754543,0,1,1,-6.281675479055002e-16,10.258754578754543A10.258754578754543,10.258754578754543,0,1,1,6.281675479055002e-16,-10.258754578754543Z" transform="translate(3488.529206493704,1975.6743512497478)" id="RoyalStandard" fill="#888888"></path><path d="M6.281675479055002e-16,-10.258754578754543A10.258754578754543,10.258754578754543,0,1,1,-6.281675479055002e-16,10.258754578754543A10.258754578754543,10.258754578754543,0,1,1,6.281675479055002e-16,-10.258754578754543Z" transform="translate(0,2891.6982118634996)" id="RupertBrook" fill="#888888"></path><path d="M6.281675479055002e-16,-10.258754578754543A10.258754578754543,10.258754578754543,0,1,1,-6.281675479055002e-16,10.258754578754543A10.258754578754543,10.258754578754543,0,1,1,6.281675479055002e-16,-10.258754578754543Z" transform="translate(2598.0484903656497,1900.3396437821386)" id="SalisburyArms" fill="#888888"></path><path d="M6.281675479055002e-16,-10.258754578754543A10.258754578754543,10.258754578754543,0,1,1,-6.281675479055002e-16,10.258754578754543A10.258754578754543,10.258754578754543,0,1,1,6.281675479055002e-16,-10.258754578754543Z" transform="translate(2188.013472917615,0)" id="Ship" fill="#888888"></path><path d="M6.281675479055002e-16,-10.258754578754543A10.258754578754543,10.258754578754543,0,1,1,-6.281675479055002e-16,10.258754578754543A10.258754578754543,10.258754578754543,0,1,1,6.281675479055002e-16,-10.258754578754543Z" transform="translate(1146.146684873312,1032.5184503989271)" id="SirIsaacNewton" fill="#888888"></path><path d="M6.281675479055002e-16,-10.258754578754543A10.258754578754543,10.258754578754543,0,1,1,-6.281675479055002e-16,10.258754578754543A10.258754578754543,10.258754578754543,0,1,1,6.281675479055002e-16,-10.258754578754543Z" transform="translate(2536.3381580943715,1779.6886563429812)" id="SixBells" fill="#888888"></path><path d="M6.281675479055002e-16,-10.258754578754543A10.258754578754543,10.258754578754543,0,1,1,-6.281675479055002e-16,10.258754578754543A10.258754578754543,10.258754578754543,0,1,1,6.281675479055002e-16,-10.258754578754543Z" transform="translate(2057.2596571081785,1362.8366083538767)" id="StRadegund" fill="#888888"></path><path d="M6.281675479055002e-16,-10.258754578754543A10.258754578754543,10.258754578754543,0,1,1,-6.281675479055002e-16,10.258754578754543A10.258754578754543,10.258754578754543,0,1,1,6.281675479055002e-16,-10.258754578754543Z" transform="translate(2435.9734182976786,1534.7498335180983)" id="TramDepot" fill="#888888"></path><path d="M6.281675479055002e-16,-10.258754578754543A10.258754578754543,10.258754578754543,0,1,1,-6.281675479055002e-16,10.258754578754543A10.258754578754543,10.258754578754543,0,1,1,6.281675479055002e-16,-10.258754578754543Z" transform="translate(1982.2502199969654,984.7198773849)" id="Waterman" fill="#888888"></path><path d="M6.281675479055002e-16,-10.258754578754543A10.258754578754543,10.258754578754543,0,1,1,-6.281675479055002e-16,10.258754578754543A10.258754578754543,10.258754578754543,0,1,1,6.281675479055002e-16,-10.258754578754543Z" transform="translate(2836.8730693369753,1841.8614379085693)" id="WhiteSwan" fill="#888888"></path><path d="M6.281675479055002e-16,-10.258754578754543A10.258754578754543,10.258754578754543,0,1,1,-6.281675479055002e-16,10.258754578754543A10.258754578754543,10.258754578754543,0,1,1,6.281675479055002e-16,-10.258754578754543Z" transform="translate(3276.8621453497185,1169.5641174709813)" id="Wrestlers" fill="#888888"></path></g><g class="discrepencies" style="display: none;"><path d="M4128.695482295483,1879.9589743589745L2841.720406615081,1579.6620192731334" id="AlexandraArms" stroke="#AAAAAA" stroke-width="10.258754578754543" style="stroke-dasharray: 3, 3;"></path><path d="M2487.29474969475,2357.825641025641L1980.1994234562276,2034.4411958493395" id="Alma" stroke="#AAAAAA" stroke-width="10.258754578754543" style="stroke-dasharray: 3, 3;"></path><path d="M2145.3362637362643,2026.9948717948719L1375.214443938704,1687.0933530644095" id="Anchor" stroke="#AAAAAA" stroke-width="10.258754578754543" style="stroke-dasharray: 3, 3;"></path><path d="M4778.416605616607,630.1538461538457L4915.200000000001,626.2883075243244" id="AncientShepherds" stroke="#AAAAAA" stroke-width="10.258754578754543" style="stroke-dasharray: 3, 3;"></path><path d="M1666.5943833943836,1328.5743589743588L1213.4500986193295,1105.2554093335666" id="Architect" stroke="#AAAAAA" stroke-width="10.258754578754543" style="stroke-dasharray: 3, 3;"></path><path d="M2247.9238095238097,1585.8871794871795L1521.8774692762856,1289.1182777510899" id="BaronOfBeef" stroke="#AAAAAA" stroke-width="10.258754578754543" style="stroke-dasharray: 3, 3;"></path><path d="M2384.7072039072045,1879.9589743589745L1543.0690335305715,1567.366009548359" id="BathHouse" stroke="#AAAAAA" stroke-width="10.258754578754543" style="stroke-dasharray: 3, 3;"></path><path d="M914.2857142857143,2541.620512820513L28.02755272341028,2766.3712770641764" id="BlueBallInn" stroke="#AAAAAA" stroke-width="10.258754578754543" style="stroke-dasharray: 3, 3;"></path><path d="M3957.71623931624,1879.9589743589745L2673.4307995751774,1526.494765956815" id="BlueMoon" stroke="#AAAAAA" stroke-width="10.258754578754543" style="stroke-dasharray: 3, 3;"></path><path d="M2179.532112332113,1108.020512820513L1857.7730845091787,1010.5241794831686" id="Boathouse" stroke="#AAAAAA" stroke-width="10.258754578754543" style="stroke-dasharray: 3, 3;"></path><path d="M2624.0781440781443,1585.8871794871795L1777.1084205735092,1374.6130683720571" id="BrewHouse" stroke="#AAAAAA" stroke-width="10.258754578754543" style="stroke-dasharray: 3, 3;"></path><path d="M3820.9328449328455,2762.174358974359L3840.5826126536194,2029.2456987825797" id="Brook" stroke="#AAAAAA" stroke-width="10.258754578754543" style="stroke-dasharray: 3, 3;"></path><path d="M3342.190964590965,1622.646153846154L2437.6513427401,1330.0472490880848" id="BurleighArms" stroke="#AAAAAA" stroke-width="10.258754578754543" style="stroke-dasharray: 3, 3;"></path><path d="M4436.45811965812,2063.753846153846L2830.347807616446,1668.1009248981334" id="CambridgeBlue" stroke="#AAAAAA" stroke-width="10.258754578754543" style="stroke-dasharray: 3, 3;"></path><path d="M2179.532112332113,740.4307692307693L1289.2052799271733,529.709789827712" id="CarltonArms" stroke="#AAAAAA" stroke-width="10.258754578754543" style="stroke-dasharray: 3, 3;"></path><path d="M1734.9860805860808,850.7076923076925L1289.2052799271733,892.7018515579625" id="CarpentersArms" stroke="#AAAAAA" stroke-width="10.258754578754543" style="stroke-dasharray: 3, 3;"></path><path d="M1734.9860805860808,1402.0923076923077L1238.121802457897,1112.9331994432155" id="CastleInn" stroke="#AAAAAA" stroke-width="10.258754578754543" style="stroke-dasharray: 3, 3;"></path><path d="M2760.861538461539,1585.8871794871795L1915.443969048703,1379.4621989677544" id="ChampionOfTheThames" stroke="#AAAAAA" stroke-width="10.258754578754543" style="stroke-dasharray: 3, 3;"></path><path d="M2897.6449328449335,1879.9589743589745L2116.049157942648,1534.057100575973" id="ClarendonArms" stroke="#AAAAAA" stroke-width="10.258754578754543" style="stroke-dasharray: 3, 3;"></path><path d="M3615.757753357754,1512.3692307692306L3091.1096950386886,1254.9434526010473" id="CornerHouse" stroke="#AAAAAA" stroke-width="10.258754578754543" style="stroke-dasharray: 3, 3;"></path><path d="M3307.9951159951165,1879.9589743589745L2232.88241541496,1516.5078660393979" id="Cricketers" stroke="#AAAAAA" stroke-width="10.258754578754543" style="stroke-dasharray: 3, 3;"></path><path d="M3547.3660561660568,2468.1025641025644L2824.5061447428316,1864.6061695119042" id="DevonshireArms" stroke="#AAAAAA" stroke-width="10.258754578754543" style="stroke-dasharray: 3, 3;"></path><path d="M3786.736996336997,1879.9589743589745L2882.736337429829,1489.4912812924103" id="Dobblers" stroke="#AAAAAA" stroke-width="10.258754578754543" style="stroke-dasharray: 3, 3;"></path><path d="M3684.149450549451,1879.9589743589745L2486.062570171446,1521.299268890055" id="DukeOfCambridge" stroke="#AAAAAA" stroke-width="10.258754578754543" style="stroke-dasharray: 3, 3;"></path><path d="M2145.3362637362643,1879.9589743589745L1517.2787133970562,1573.0810563217128" id="Eagle" stroke="#AAAAAA" stroke-width="10.258754578754543" style="stroke-dasharray: 3, 3;"></path><path d="M3615.757753357754,2541.620512820513L3017.591746320741,1894.0473195567404" id="EarlOfBeaconsfield" stroke="#AAAAAA" stroke-width="10.258754578754543" style="stroke-dasharray: 3, 3;"></path><path d="M3171.211721611722,2504.8615384615387L2513.7793961462603,2259.002124623286" id="EarlOfDerby" stroke="#AAAAAA" stroke-width="10.258754578754543" style="stroke-dasharray: 3, 3;"></path><path d="M3171.211721611722,1879.9589743589745L2229.4022758306783,1506.6941493579227" id="ElmTree" stroke="#AAAAAA" stroke-width="10.258754578754543" style="stroke-dasharray: 3, 3;"></path><path d="M3684.149450549451,2615.1384615384613L3329.934274010014,1851.0978771384102" id="Empress" stroke="#AAAAAA" stroke-width="10.258754578754543" style="stroke-dasharray: 3, 3;"></path><path d="M3102.820024420025,2431.3435897435897L2368.8564406008195,2121.494635590089" id="FlyingPig" stroke="#AAAAAA" stroke-width="10.258754578754543" style="stroke-dasharray: 3, 3;"></path><path d="M2624.0781440781443,1402.0923076923077L2123.6930359581243,1080.259295667914" id="FortStGeorge" stroke="#AAAAAA" stroke-width="10.258754578754543" style="stroke-dasharray: 3, 3;"></path><path d="M3444.778510378511,1879.9589743589745L2284.2144742831133,1528.8616035092127" id="FreePress" stroke="#AAAAAA" stroke-width="10.258754578754543" style="stroke-dasharray: 3, 3;"></path><path d="M4197.08717948718,1879.9589743589745L3020.388287058109,1589.1293694835463" id="Geldart" stroke="#AAAAAA" stroke-width="10.258754578754543" style="stroke-dasharray: 3, 3;"></path><path d="M3068.6241758241763,850.7076923076925L3225.03292368381,190.61701460447512" id="GoldenHind" stroke="#AAAAAA" stroke-width="10.258754578754543" style="stroke-dasharray: 3, 3;"></path><path d="M2897.6449328449335,2210.789743589744L2050.3615232893344,1762.7166992584507" id="GrainStore" stroke="#AAAAAA" stroke-width="10.258754578754543" style="stroke-dasharray: 3, 3;"></path><path d="M1940.1611721611725,2100.5128205128203L1249.1836747079346,1819.8094392473595" id="Granta" stroke="#AAAAAA" stroke-width="10.258754578754543" style="stroke-dasharray: 3, 3;"></path><path d="M1666.5943833943836,924.2256410256409L1065.4198755879224,938.7108644716363" id="Grapes" stroke="#AAAAAA" stroke-width="10.258754578754543" style="stroke-dasharray: 3, 3;"></path><path d="M3273.799267399268,1108.020512820513L3219.377696859354,765.816267638857" id="GreenDragon" stroke="#AAAAAA" stroke-width="10.258754578754543" style="stroke-dasharray: 3, 3;"></path><path d="M914.2857142857143,2762.174358974359L96.0145653163399,2954.7369096067446" id="GreenManGrantchester" stroke="#AAAAAA" stroke-width="10.258754578754543" style="stroke-dasharray: 3, 3;"></path><path d="M1803.377777777778,3093.0051282051286L1207.1734182976786,3155.3985518736768" id="GreenManTrumpington" stroke="#AAAAAA" stroke-width="10.258754578754543" style="stroke-dasharray: 3, 3;"></path><path d="M3137.0158730158737,1108.020512820513L2846.8784706417846,801.5497419090916" id="Haymakers" stroke="#AAAAAA" stroke-width="10.258754578754543" style="stroke-dasharray: 3, 3;"></path><path d="M3273.799267399268,1696.1641025641024L2221.758397815202,1377.3262723955181" id="Hopbine" stroke="#AAAAAA" stroke-width="10.258754578754543" style="stroke-dasharray: 3, 3;"></path><path d="M1734.9860805860808,3166.523076923077L1184.7389470490061,3238.4687771963854" id="HudsonsAleHouse" stroke="#AAAAAA" stroke-width="10.258754578754543" style="stroke-dasharray: 3, 3;"></path><path d="M3171.211721611722,740.4307692307693L2715.8760734334705,95.07759632146099" id="JennyWren" stroke="#AAAAAA" stroke-width="10.258754578754543" style="stroke-dasharray: 3, 3;"></path><path d="M4846.808302808304,556.6358974358973L4737.899317250796,566.1590881384163" id="KingsHead" stroke="#AAAAAA" stroke-width="10.258754578754543" style="stroke-dasharray: 3, 3;"></path><path d="M4504.849816849818,2137.271794871795L2867.0757093005614,1782.2286771313209" id="KingstonArms" stroke="#AAAAAA" stroke-width="10.258754578754543" style="stroke-dasharray: 3, 3;"></path><path d="M2795.0573870573876,1585.8871794871795L1961.92869063875,1384.5422405440238" id="KingStreetRun" stroke="#AAAAAA" stroke-width="10.258754578754543" style="stroke-dasharray: 3, 3;"></path><path d="M3342.190964590965,2247.548717948718L2573.3767865270815,1836.492757606278" id="LiveAndLetLive" stroke="#AAAAAA" stroke-width="10.258754578754543" style="stroke-dasharray: 3, 3;"></path><path d="M1632.398534798535,3276.8L1045.7197997269,3276.8" id="LordByronInn" stroke="#AAAAAA" stroke-width="10.258754578754543" style="stroke-dasharray: 3, 3;"></path><path d="M2624.0781440781443,1475.6102564102564L1591.107388863602,1244.2060919964647" id="Maypole" stroke="#AAAAAA" stroke-width="10.258754578754543" style="stroke-dasharray: 3, 3;"></path><path d="M3444.778510378511,2798.9333333333334L3716.167622515552,2429.9917058648107" id="Med" stroke="#AAAAAA" stroke-width="10.258754578754543" style="stroke-dasharray: 3, 3;"></path><path d="M2316.315506715507,2100.5128205128203L1398.2082233348501,1712.8976551626777" id="Mill" stroke="#AAAAAA" stroke-width="10.258754578754543" style="stroke-dasharray: 3, 3;"></path><path d="M2863.4490842490845,850.7076923076925L2676.227340312548,493.22585487031165" id="MiltonArms" stroke="#AAAAAA" stroke-width="10.258754578754543" style="stroke-dasharray: 3, 3;"></path><path d="M2316.315506715507,1585.8871794871795L1526.0412077074798,1291.485115303898" id="Mitre" stroke="#AAAAAA" stroke-width="10.258754578754543" style="stroke-dasharray: 3, 3;"></path><path d="M2624.0781440781443,1108.020512820513L2118.5349719314213,971.6156792275092" id="OldSpring" stroke="#AAAAAA" stroke-width="10.258754578754543" style="stroke-dasharray: 3, 3;"></path><path d="M2589.882295482296,2247.548717948718L1948.753876498255,2005.0577735495435" id="PantonArms" stroke="#AAAAAA" stroke-width="10.258754578754543" style="stroke-dasharray: 3, 3;"></path><path d="M1940.1611721611725,1585.8871794871795L1403.2419966621153,1227.8114123635687" id="Pickerel" stroke="#AAAAAA" stroke-width="10.258754578754543" style="stroke-dasharray: 3, 3;"></path><path d="M2487.29474969475,1879.9589743589745L1585.5143073888632,1560.3809523808352" id="PintShop" stroke="#AAAAAA" stroke-width="10.258754578754543" style="stroke-dasharray: 3, 3;"></path><path d="M4915.200000000001,483.1179487179488L4636.105234410559,412.6956503355327" id="Plough" stroke="#AAAAAA" stroke-width="10.258754578754543" style="stroke-dasharray: 3, 3;"></path><path d="M2282.1196581196587,1108.020512820513L1920.0427249279317,969.7106636362546" id="PortlandArms" stroke="#AAAAAA" stroke-width="10.258754578754543" style="stroke-dasharray: 3, 3;"></path><path d="M2966.0366300366304,2284.3076923076924L2068.1972386587763,1806.301146873866" id="PrinceRegent" stroke="#AAAAAA" stroke-width="10.258754578754543" style="stroke-dasharray: 3, 3;"></path><path d="M1803.377777777778,1475.6102564102564L1221.280412683963,1193.3479484875038" id="Punter" stroke="#AAAAAA" stroke-width="10.258754578754543" style="stroke-dasharray: 3, 3;"></path><path d="M3649.9536019536026,2909.2102564102565L3685.094947655895,2941.805894684885" id="QueenEdith" stroke="#AAAAAA" stroke-width="10.258754578754543" style="stroke-dasharray: 3, 3;"></path><path d="M1734.9860805860808,2100.5128205128203L933.9203155818541,2005.2886845305256" id="RedBull" stroke="#AAAAAA" stroke-width="10.258754578754543" style="stroke-dasharray: 3, 3;"></path><path d="M914.2857142857143,2688.6564102564103L122.67492034592563,2937.2454028152097" id="RedLion" stroke="#AAAAAA" stroke-width="10.258754578754543" style="stroke-dasharray: 3, 3;"></path><path d="M2624.0781440781443,2100.5128205128203L1875.3602184797448,1632.3674506278985" id="Regal" stroke="#AAAAAA" stroke-width="10.258754578754543" style="stroke-dasharray: 3, 3;"></path><path d="M3239.6034188034196,2578.379487179487L3299.110180549235,2523.9147472825925" id="Rock" stroke="#AAAAAA" stroke-width="10.258754578754543" style="stroke-dasharray: 3, 3;"></path><path d="M3752.5411477411485,2688.6564102564103L3488.529206493704,1975.6743512497478" id="RoyalStandard" stroke="#AAAAAA" stroke-width="10.258754578754543" style="stroke-dasharray: 3, 3;"></path><path d="M914.2857142857143,2615.1384615384613L0,2891.6982118634996" id="RupertBrook" stroke="#AAAAAA" stroke-width="10.258754578754543" style="stroke-dasharray: 3, 3;"></path><path d="M3410.5826617826624,2321.0666666666666L2598.0484903656497,1900.3396437821386" id="SalisburyArms" stroke="#AAAAAA" stroke-width="10.258754578754543" style="stroke-dasharray: 3, 3;"></path><path d="M3171.211721611722,409.5999999999999L2188.013472917615,0" id="Ship" stroke="#AAAAAA" stroke-width="10.258754578754543" style="stroke-dasharray: 3, 3;"></path><path d="M1598.2026862026864,1255.0564102564101L1146.146684873312,1032.5184503989271" id="SirIsaacNewton" stroke="#AAAAAA" stroke-width="10.258754578754543" style="stroke-dasharray: 3, 3;"></path><path d="M3273.799267399268,2174.0307692307692L2536.3381580943715,1779.6886563429812" id="SixBells" stroke="#AAAAAA" stroke-width="10.258754578754543" style="stroke-dasharray: 3, 3;"></path><path d="M2897.6449328449335,1732.9230769230771L2057.2596571081785,1362.8366083538767" id="StRadegund" stroke="#AAAAAA" stroke-width="10.258754578754543" style="stroke-dasharray: 3, 3;"></path><path d="M3547.3660561660568,1879.9589743589745L2435.9734182976786,1534.7498335180983" id="TramDepot" stroke="#AAAAAA" stroke-width="10.258754578754543" style="stroke-dasharray: 3, 3;"></path><path d="M2418.903052503053,1108.020512820513L1982.2502199969654,984.7198773849" id="Waterman" stroke="#AAAAAA" stroke-width="10.258754578754543" style="stroke-dasharray: 3, 3;"></path><path d="M3478.97435897436,2394.5846153846155L2836.8730693369753,1841.8614379085693" id="WhiteSwan" stroke="#AAAAAA" stroke-width="10.258754578754543" style="stroke-dasharray: 3, 3;"></path><path d="M3684.149450549451,1512.3692307692306L3276.8621453497185,1169.5641174709813" id="Wrestlers" stroke="#AAAAAA" stroke-width="10.258754578754543" style="stroke-dasharray: 3, 3;"></path></g></g></g></svg>